<svg style="position:absolute;width:0;height:0" width="0" height="0" xmlns="http://www.w3.org/2000/svg">
    <defs>
        <symbol id="icon-tax-free" viewBox="0 0 46 50">
            <path d="M7.096 21.621h24.791a.791.791 0 0 0 0-1.585H7.096a.792.792 0 0 0 0 1.585z"/>
            <path d="M32.677 26.38a.792.792 0 0 0-.79-.793H7.096a.792.792 0 0 0 0 1.585h24.791a.79.79 0 0 0 .79-.792z"
                  fill="none"/>
            <path d="M42.473 0H3.527A3.537 3.537 0 0 0 0 3.539v37.42c0 .21.083.412.231.561l8.22 8.249a.79.79 0 0 0 .558.231h33.464A3.537 3.537 0 0 0 46 46.461V3.539A3.537 3.537 0 0 0 42.473 0zM8.22 47.294l-5.523-5.542h4.206a1.32 1.32 0 0 1 1.316 1.321v4.221zm34.253 1.121H9.799v-5.342a2.904 2.904 0 0 0-2.896-2.906H1.58V3.539c0-1.077.873-1.954 1.947-1.954h38.946c1.074 0 1.947.876 1.947 1.954v42.922a1.953 1.953 0 0 1-1.947 1.954z"/>
            <path d="M7.096 16.07h24.791a.792.792 0 0 0 0-1.585H7.096a.791.791 0 0 0 0 1.585zM38.903 25.587h-2.95a.792.792 0 0 0 0 1.585h2.95a.791.791 0 0 0 0-1.585zM38.903 20.035h-2.95a.792.792 0 0 0 0 1.585h2.95a.791.791 0 0 0 0-1.585zM38.903 14.485h-2.95a.791.791 0 0 0 0 1.585h2.95a.792.792 0 0 0 0-1.585zM38.903 4.902H7.096a.791.791 0 0 0-.79.792v4.429c0 .438.354.793.79.793h31.806c.436 0 .79-.355.79-.793V5.694a.79.79 0 0 0-.789-.792zM7.886 9.331V6.487h30.227v2.844H7.886zM36.115 37.748v-2.05c.363.095.739.256 1.115.459a.976.976 0 0 0 .47.121c.511 0 .914-.39.914-.903 0-.405-.228-.66-.484-.809a5.61 5.61 0 0 0-1.949-.647v-.189a.695.695 0 0 0-.699-.701c-.39 0-.699.31-.699.701v.161c-1.693.176-2.822 1.174-2.822 2.658 0 1.605.954 2.347 2.89 2.873v2.144c-.618-.135-1.156-.391-1.72-.755a.964.964 0 0 0-.524-.176.904.904 0 0 0-.928.917c0 .364.175.634.457.809a6.69 6.69 0 0 0 2.648.944v.728c0 .391.309.702.699.702.39 0 .699-.31.699-.702v-.714c1.693-.189 2.849-1.16 2.849-2.671 0-1.51-.874-2.347-2.916-2.9zm-1.264-.35c-.739-.27-.927-.553-.927-.971 0-.432.282-.755.927-.85v1.821zm1.264 4.235v-1.874c.726.256.954.553.954.998 0 .485-.323.782-.954.876zM27.057 33.339H14.662a.791.791 0 0 0-.79.792v4.429c0 .438.354.793.79.793h12.396c.436 0 .79-.355.79-.793v-4.429a.792.792 0 0 0-.791-.792zm-.79 4.429H15.452v-2.844h10.816v2.844z"/>
        </symbol>
        <symbol viewBox="0 0 63.976 46.019" id="icon-withdraw">
            <path d="M59.262 7.796h-1.584V4.679c0-2.58-2.114-4.679-4.713-4.679H4.713C2.114 0 0 2.099 0 4.679v28.865c0 2.58 2.114 4.679 4.713 4.679h1.584v3.115c0 2.58 2.114 4.68 4.714 4.68h48.251c2.599 0 4.714-2.1 4.714-4.68V12.475c0-2.58-2.115-4.679-4.714-4.679zM6.297 12.475v23.617H4.713a2.56 2.56 0 0 1-2.566-2.548V4.679a2.559 2.559 0 0 1 2.566-2.547h48.252a2.56 2.56 0 0 1 2.566 2.547v3.117h-44.52c-2.599 0-4.714 2.099-4.714 4.679zm55.532 28.864a2.56 2.56 0 0 1-2.567 2.548H11.011a2.56 2.56 0 0 1-2.567-2.548V22.715h53.385v18.624zm0-20.755H8.444v-5.258h53.385v5.258zm0-7.389H8.444v-.72a2.56 2.56 0 0 1 2.567-2.548h48.251a2.56 2.56 0 0 1 2.567 2.548v.72z"/>
            <path d="M51.457 26.836c-.919 0-1.791.2-2.577.556a6.273 6.273 0 0 0-2.576-.556c-3.433 0-6.226 2.773-6.226 6.181s2.793 6.181 6.226 6.181c.892 0 1.771-.193 2.576-.557a6.23 6.23 0 0 0 2.577.557c3.433 0 6.226-2.773 6.226-6.181-.001-3.408-2.793-6.181-6.226-6.181zm-4.72 10.206a4.158 4.158 0 0 1-.433.024c-2.249 0-4.079-1.816-4.079-4.049 0-2.233 1.83-4.05 4.079-4.05.145 0 .29.009.433.024a6.129 6.129 0 0 0 0 8.051zm4.72.024c-2.249 0-4.079-1.816-4.079-4.049 0-2.233 1.83-4.05 4.079-4.05 2.249 0 4.079 1.817 4.079 4.05 0 2.233-1.83 4.049-4.079 4.049zM28.553 29.962H13.954c-.593 0-1.073.477-1.073 1.065a1.07 1.07 0 0 0 1.073 1.066h14.599a1.07 1.07 0 0 0 1.073-1.066c0-.588-.48-1.065-1.073-1.065zM35.423 35.362H13.954c-.593 0-1.073.477-1.073 1.066s.481 1.066 1.073 1.066h21.469c.593 0 1.073-.477 1.073-1.066s-.48-1.066-1.073-1.066z"/>
        </symbol>
        <symbol viewBox="0 0 65 50" id="icon-platform">
            <path d="M61.811 0H3.189A3.2 3.2 0 0 0 0 3.202V38.08a3.2 3.2 0 0 0 3.189 3.202h21.78v6.676h-3.325c-.562 0-1.018.457-1.018 1.022S21.082 50 21.644 50h21.712c.562 0 1.018-.457 1.018-1.022s-.456-1.022-1.018-1.022h-3.325V41.28h21.78A3.2 3.2 0 0 0 65 38.078V3.202A3.2 3.2 0 0 0 61.811 0zM37.996 47.957H27.004v-6.676h10.992v6.676zm24.969-9.878c0 .639-.517 1.158-1.153 1.158H3.189c-.636 0-1.154-.52-1.154-1.158v-1.158h60.929l.001 1.158zm0-3.201H2.035V3.202c0-.638.517-1.158 1.154-1.158h58.622c.636 0 1.153.52 1.153 1.158v31.676h.001z"/>
            <path d="M18.387 5.434c-7.146 0-12.959 5.836-12.959 13.011 0 7.174 5.813 13.011 12.959 13.011s12.959-5.837 12.959-13.011c.001-7.175-5.813-13.011-12.959-13.011zm0 2.043c2.646 0 5.075.95 6.967 2.527l-3.189 3.202a6.398 6.398 0 0 0-3.778-1.233c-3.208 0-5.875 2.365-6.365 5.45h-4.51c.516-5.57 5.195-9.946 10.875-9.946zM8.388 22.853a10.91 10.91 0 0 1-.876-3.386h4.51c.065.41.168.807.307 1.188l-3.941 2.198zm8.981 6.509c-3.313-.308-6.201-2.108-7.991-4.724l3.943-2.199a6.438 6.438 0 0 0 4.048 2.395v4.528zm-3.392-10.918c0-2.442 1.978-4.428 4.41-4.428s4.41 1.986 4.41 4.428c0 2.441-1.978 4.427-4.41 4.427s-4.41-1.985-4.41-4.427zm5.428 10.918v-4.528a6.475 6.475 0 0 0 4.2-10.183l3.189-3.202a10.943 10.943 0 0 1 2.517 6.995c0 5.703-4.358 10.401-9.906 10.918zM36.491 15.236c-.562 0-1.018.552-1.018 1.234v6.58c0 .682.456 1.234 1.018 1.234s1.018-.552 1.018-1.234v-6.58c0-.682-.456-1.234-1.018-1.234zM49.869 15.236c-.562 0-1.018.552-1.018 1.234v6.58c0 .682.456 1.234 1.018 1.234s1.018-.552 1.018-1.234v-6.58c0-.682-.455-1.234-1.018-1.234zM45.527 19.185c-.562 0-1.018.552-1.018 1.234v2.632c0 .682.456 1.234 1.018 1.234s1.018-.552 1.018-1.234v-2.632c0-.682-.456-1.234-1.018-1.234zM54.212 19.185c-.562 0-1.018.552-1.018 1.234v2.632c0 .682.456 1.234 1.018 1.234s1.018-.552 1.018-1.234v-2.632c0-.682-.456-1.234-1.018-1.234zM41.185 12.604c-.562 0-1.018.552-1.018 1.234v9.212c0 .682.456 1.234 1.018 1.234s1.018-.552 1.018-1.234v-9.212c0-.682-.456-1.234-1.018-1.234zM58.554 12.604c-.562 0-1.018.552-1.018 1.234v9.212c0 .682.456 1.234 1.018 1.234s1.018-.552 1.018-1.234v-9.212c0-.682-.456-1.234-1.018-1.234z"/>
        </symbol>
        <symbol id="icon-quotes" viewBox="0 0 49.938 49.937">
            <path d="M49.158 46.816H4.359l5.457-4.961a2.338 2.338 0 0 0 3.031-.728l4.327 1.18a2.344 2.344 0 0 0 2.334 2.169 2.343 2.343 0 0 0 2.053-3.465l5.256-5.874 1.011 1.632c-.323.402-.517.91-.517 1.464a2.34 2.34 0 1 0 4.292 1.292l11.325 2.832a2.344 2.344 0 0 0 2.33 2.119 2.343 2.343 0 0 0 2.341-2.341 2.34 2.34 0 1 0-4.292-1.292l-11.325-2.831a2.344 2.344 0 0 0-2.828-2.065l-1.252-2.022 3.981-4.45a2.343 2.343 0 0 0 3.231-2.165c0-.705-.314-1.338-.808-1.767l6.97-17.741.081.002a2.343 2.343 0 0 0 2.341-2.341c0-1.29-1.05-2.341-2.341-2.341a2.344 2.344 0 0 0-2.341 2.341c0 .706.314 1.338.808 1.768l-6.97 17.741-.081-.002a2.343 2.343 0 0 0-2.053 3.465L20.397 39.97a2.34 2.34 0 0 0-2.813.832l-4.327-1.18a2.344 2.344 0 0 0-2.334-2.169 2.343 2.343 0 0 0-2.158 3.248L3.12 45.832V25.324l7.024 2.702-.002.063c0 1.291 1.05 2.341 2.341 2.341a2.343 2.343 0 0 0 2.168-3.223l3.725-3.311a2.323 2.323 0 0 0 1.628.239l4.635 7.486a.78.78 0 1 0 1.327-.821l-4.635-7.487c.323-.402.517-.911.517-1.465a2.343 2.343 0 0 0-2.341-2.341 2.343 2.343 0 0 0-2.168 3.223l-3.725 3.311a2.334 2.334 0 0 0-2.908.529l-7.585-2.917V.78a.78.78 0 0 0-1.56 0v3.902H.78a.78.78 0 1 0 0 1.561h.78v3.121H.78a.78.78 0 1 0 0 1.56h.78v3.121H.78a.78.78 0 1 0 0 1.56h.78v3.121H.78a.78.78 0 1 0 0 1.56h.78v3.121H.78a.78.78 0 0 0 0 1.56h.78v3.121H.78a.783.783 0 0 0-.78.782c0 .431.349.78.78.78h.78v3.121H.78a.78.78 0 0 0 0 1.561h.78v3.121H.78a.78.78 0 1 0 0 1.561h.78v3.121H.78a.78.78 0 0 0 0 1.56h.78v3.121H.78a.78.78 0 1 0 0 1.56h.78v.781a.78.78 0 1 0 1.56 0v-.781h3.121v.781a.78.78 0 1 0 1.56 0v-.781h3.121v.781a.78.78 0 1 0 1.56 0v-.781h3.121v.781a.78.78 0 1 0 1.56 0v-.781h3.121v.781a.78.78 0 1 0 1.56 0v-.781h3.121v.781a.78.78 0 1 0 1.56 0v-.781h3.121v.781a.78.78 0 1 0 1.56 0v-.781h3.121v.781a.78.78 0 1 0 1.56 0v-.781h3.121v.781a.78.78 0 1 0 1.56 0v-.781h3.121v.781a.78.78 0 1 0 1.56 0v-.781h3.901a.78.78 0 0 0 .78-.78.769.769 0 0 0-.772-.78zm-3.901-5.462a.78.78 0 1 1 0 1.56.78.78 0 0 1 0-1.56zm-14.826-3.121a.781.781 0 0 1-1.56 0 .781.781 0 0 1 1.56 0zM41.355 4.682a.781.781 0 1 1-.002 1.562.781.781 0 0 1 .002-1.562zM19.507 21.067a.781.781 0 0 1 0 1.56.781.781 0 0 1 0-1.56zm-7.022 6.242a.781.781 0 0 1 0 1.56.781.781 0 0 1 0-1.56zm20.287-.78a.781.781 0 0 1 0 1.56.781.781 0 0 1 0-1.56zM19.507 41.354a.78.78 0 1 1 0 1.56.78.78 0 0 1 0-1.56zm-8.583-2.34a.78.78 0 1 1 0 1.56.78.78 0 0 1 0-1.56z"/>
        </symbol>
        <symbol viewBox="0 0 63 40" id="icon-passport-2">
            <path d="M59.205 4.799h-1.106V3.716C58.098 1.667 56.396 0 54.303 0H3.796C1.703 0 0 1.667 0 3.716v27.769c0 2.049 1.703 3.716 3.796 3.716h1.106v1.083C4.902 38.333 6.604 40 8.697 40h50.507C61.297 40 63 38.333 63 36.284V8.515c0-2.049-1.703-3.716-3.795-3.716zM3.796 32.744c-.709 0-1.286-.565-1.286-1.259V3.716c0-.694.577-1.259 1.286-1.259h50.507c.709 0 1.285.565 1.285 1.259v1.083H8.697c-2.093 0-3.796 1.667-3.796 3.716v24.229H3.796zm56.694 3.54c0 .694-.577 1.259-1.285 1.259H8.697c-.709 0-1.286-.565-1.286-1.259V8.515c0-.694.577-1.259 1.286-1.259h50.507c.709 0 1.285.565 1.285 1.259v27.769h.001z"/>
            <path d="M10.992 15.383c0 .678.562 1.228 1.255 1.228h43.078c.693 0 1.255-.55 1.255-1.228 0-.679-.562-1.229-1.255-1.229H12.247c-.693.001-1.255.551-1.255 1.229zM10.992 22.633c0 .678.562 1.229 1.255 1.229h43.078c.693 0 1.255-.55 1.255-1.229s-.562-1.229-1.255-1.229H12.247c-.693 0-1.255.551-1.255 1.229zM39.006 29.883c0 .678-.562 1.228-1.255 1.228H12.247c-.693 0-1.255-.55-1.255-1.228 0-.679.562-1.229 1.255-1.229h25.504c.693 0 1.255.55 1.255 1.229z"/>
        </symbol>
        <symbol viewBox="0 0 63 40" id="icon-passport-1">
            <path d="M59.204 4.799h-1.106V3.716C58.098 1.667 56.396 0 54.303 0H3.796C1.703 0 0 1.667 0 3.716v27.769c0 2.049 1.703 3.716 3.796 3.716h1.106v1.083C4.902 38.333 6.604 40 8.697 40h50.507C61.297 40 63 38.333 63 36.284V8.515c0-2.049-1.703-3.716-3.796-3.716zM3.796 32.744c-.709 0-1.286-.565-1.286-1.259V3.716c0-.694.577-1.258 1.286-1.258h50.507c.709 0 1.285.565 1.285 1.258v1.083H8.697c-2.093 0-3.795 1.667-3.795 3.716v24.229H3.796zm56.694 3.54c0 .694-.577 1.259-1.285 1.259H8.697c-.709 0-1.286-.565-1.286-1.259V8.515c0-.694.577-1.259 1.286-1.259h50.507c.709 0 1.285.565 1.285 1.259v27.769h.001z"/>
            <path d="M40.17 16.612h15.155c.693 0 1.255-.55 1.255-1.228 0-.679-.562-1.229-1.255-1.229H40.17c-.693 0-1.255.55-1.255 1.229 0 .678.562 1.228 1.255 1.228zM40.17 23.862h15.155c.693 0 1.255-.55 1.255-1.229s-.562-1.229-1.255-1.229H40.17c-.693 0-1.255.55-1.255 1.229 0 .678.562 1.229 1.255 1.229zM50.097 28.654H40.17c-.693 0-1.255.55-1.255 1.229 0 .678.562 1.228 1.255 1.228h9.926c.693 0 1.255-.55 1.255-1.228.001-.678-.561-1.229-1.254-1.229zM23.207 23.413c-5.61 0-10.175 4.22-10.175 9.406 0 .679.562 1.229 1.255 1.229h17.839c.693 0 1.255-.55 1.255-1.229.001-5.187-4.564-9.406-10.174-9.406zm-1.341 2.564v5.613h-6.204c.564-2.853 3.055-5.107 6.204-5.613zm2.51 5.613v-5.637c3.23.45 5.802 2.733 6.376 5.637h-6.376zM23.11 22.515c3.363 0 6.099-2.678 6.099-5.971 0-3.292-2.736-5.971-6.099-5.971s-6.099 2.679-6.099 5.971c0 3.292 2.736 5.971 6.099 5.971zm0-9.485c1.979 0 3.589 1.576 3.589 3.514 0 1.938-1.61 3.514-3.589 3.514s-3.589-1.576-3.589-3.514c0-1.938 1.61-3.514 3.589-3.514z"/>
        </symbol>
        <symbol id="icon-id-card" viewBox="0 0 52 39">
            <path d="M48.066 39H3.933C1.766 39 0 37.274 0 35.139V3.861C0 1.735 1.766 0 3.933 0h44.133C50.241 0 52 1.735 52 3.861v31.286C52 37.274 50.241 39 48.066 39zM3.933 1.546c-1.298 0-2.358 1.04-2.358 2.314v31.286c0 1.274 1.06 2.314 2.358 2.314h44.133c1.306 0 2.368-1.04 2.368-2.314V3.861c0-1.274-1.062-2.314-2.368-2.314H3.933zm0 0"/>
            <path d="M39.517 1.546H12.484a.782.782 0 0 1-.785-.776.781.781 0 0 1 .785-.77h27.033c.437 0 .791.347.791.77a.783.783 0 0 1-.791.776zm0 0M26.888 31.4H8.382a.776.776 0 0 1-.785-.77v-2.065c0-1.29.761-2.481 1.951-3.031l4.165-2.519c-1.345-1.071-2.183-2.654-2.244-4.374l-.161-4.071c0-3.114 2.588-5.618 5.778-5.618h1.097c3.18 0 5.778 2.504 5.778 5.587L23.8 18.64c-.071 1.72-.907 3.311-2.252 4.382l4.21 2.525a3.378 3.378 0 0 1 1.912 3.017v2.065a.77.77 0 0 1-.782.771zM9.165 29.853h16.939v-1.289c0-.701-.415-1.342-1.06-1.637-.022-.014-.045-.021-.069-.037l-5.316-3.197a.783.783 0 0 1-.376-.687.788.788 0 0 1 .437-.664c1.483-.724 2.445-2.164 2.506-3.762l.161-4.071c0-2.203-1.882-4.019-4.203-4.019h-1.097c-2.321 0-4.203 1.816-4.203 4.048l.161 4.042c.061 1.591 1.013 3.031 2.496 3.762a.793.793 0 0 1 .439.656.804.804 0 0 1-.376.695l-5.302 3.189c-.722.34-1.129.981-1.129 1.674v1.297h-.008zm0 0M43.734 14.086h-9.717a.775.775 0 0 1-.785-.768c0-.431.346-.778.785-.778h9.717c.439 0 .785.347.785.778a.776.776 0 0 1-.785.768zm0 0M43.734 20.941h-9.717a.776.776 0 0 1-.785-.77.77.77 0 0 1 .785-.768h9.717a.77.77 0 0 1 .785.768.777.777 0 0 1-.785.77zm0 0M43.734 27.801h-9.717a.775.775 0 0 1-.785-.768c0-.431.346-.776.785-.776h9.717c.439 0 .785.346.785.776a.775.775 0 0 1-.785.768zm0 0"/>
        </symbol>
        <symbol id="icon-java" viewBox="0 0 50 32">
            <title>java</title>
            <path class="path1"
                  d="M48.845 0H1.304C.585 0 0 .586 0 1.306v24.091c0 .72.585 1.306 1.304 1.306h19.871v4.2h-5.171a.548.548 0 0 0 0 1.098h18.141a.548.548 0 0 0 0-1.098h-5.171v-4.2h19.871c.719 0 1.304-.586 1.304-1.306V1.306c0-.72-.585-1.306-1.304-1.306zM27.878 30.902h-5.607v-4.2h5.607v4.2zm21.175-5.505a.21.21 0 0 1-.208.208H1.304a.211.211 0 0 1-.208-.208V1.306a.21.21 0 0 1 .208-.208h47.541c.112 0 .208.095.208.208v24.091z"/>
            <path class="path2" d="M47.333 21.139H2.816a.548.548 0 0 0 0 1.098h44.517a.548.548 0 0 0 0-1.098z"/>
            <path class="path3"
                  d="M18.133 9.182v6.04c0 .682-.183 1.209-.548 1.58s-.874.557-1.525.557c-.145 0-.277-.007-.396-.021s-.246-.038-.38-.07l.076-1.2a1.967 1.967 0 0 0 .516.064c.214 0 .378-.075.494-.224s.174-.378.174-.686v-6.04h1.59zM18.1 7.776h-1.59V6.608h1.59v1.168z"/>
            <path class="path4"
                  d="M22.483 15.006a3.201 3.201 0 0 1-.238-.872c-.163.283-.377.518-.643.705s-.584.28-.953.28c-.615 0-1.089-.157-1.422-.471s-.499-.742-.499-1.284c0-.57.221-1.013.665-1.327s1.09-.471 1.941-.471h.885v-.463c0-.28-.074-.497-.223-.651s-.367-.231-.657-.231c-.257 0-.455.062-.594.186s-.209.295-.209.514l-1.531-.005-.006-.032c-.025-.492.19-.916.646-1.273s1.055-.536 1.797-.536c.702 0 1.272.177 1.71.53s.657.857.657 1.51v2.406c0 .273.021.529.063.77s.107.479.198.716h-1.585zm-1.449-1.049c.279 0 .527-.068.744-.205s.364-.294.44-.474v-.824h-.885c-.336 0-.592.083-.765.25s-.261.369-.261.606c0 .194.065.35.195.468s.308.178.532.178z"/>
            <path class="path5"
                  d="M26.704 12.837l.103.538h.032l.109-.538.966-3.655h1.656l-1.998 5.825h-1.515l-1.998-5.825h1.656l.988 3.655z"/>
            <path class="path6"
                  d="M33.28 15.006c-.058-.133-.108-.273-.15-.42s-.071-.298-.089-.452c-.163.283-.378.518-.643.705s-.584.28-.953.28c-.615 0-1.089-.157-1.422-.471s-.499-.742-.499-1.284c0-.57.221-1.013.665-1.327s1.09-.471 1.941-.471h.885v-.463c0-.28-.074-.497-.223-.651s-.367-.231-.657-.231c-.257 0-.455.062-.594.186s-.209.295-.209.514l-1.531-.005-.006-.032c-.025-.492.19-.916.646-1.273s1.055-.536 1.797-.536c.702 0 1.272.177 1.71.53s.657.857.657 1.51v2.406c0 .273.021.529.063.77s.107.479.198.716h-1.585zm-1.449-1.049c.279 0 .527-.068.744-.205s.364-.294.44-.474v-.824h-.885c-.336 0-.592.083-.765.25s-.261.369-.261.606c0 .194.065.35.195.468s.308.178.532.178z"/>
        </symbol>
        <symbol id="icon-download" viewBox="0 0 26 32">
            <title>download</title>
            <path class="path1"
                  d="M12.862 23.736a.48.48 0 0 1-.479-.479l.001-10.801a.48.48 0 0 1 .958 0l-.001 10.801a.48.48 0 0 1-.479.479z"/>
            <path class="path2"
                  d="M12.862 23.736a.48.48 0 0 1-.339-.14l-4.13-4.13a.479.479 0 1 1 .677-.677l3.792 3.792 3.792-3.792a.479.479 0 1 1 .677.677l-4.131 4.13a.472.472 0 0 1-.337.14z"/>
            <path class="path3"
                  d="M23.332 31.883H2.394A2.396 2.396 0 0 1 0 29.489V2.394A2.396 2.396 0 0 1 2.394 0h15.205a.48.48 0 0 1 0 .958H2.394c-.792 0-1.436.645-1.436 1.436v27.095c0 .792.645 1.436 1.436 1.436h20.938c.792 0 1.436-.645 1.436-1.436V8.335a.48.48 0 0 1 .958 0V29.49a2.395 2.395 0 0 1-2.394 2.393z"/>
            <path class="path4"
                  d="M25.247 8.814h-7.648a.48.48 0 0 1-.479-.479V.686a.48.48 0 0 1 .958 0v7.169h7.169a.48.48 0 0 1 0 .959z"/>
            <path class="path5"
                  d="M25.247 8.814a.482.482 0 0 1-.343-.144L17.256.814a.479.479 0 1 1 .687-.667l7.648 7.856a.479.479 0 0 1-.344.812z"/>
        </symbol>
        <symbol id="icon-logo" viewBox="0 0 153 32">
            <title>logo</title>
            <path fill="#e31a22" class="path1"
                  d="M134.774 17.634v2.717h-6.163v11.603h-2.985V5.151h10.645V7.87h-7.66v9.764h6.163z"/>
            <path fill="#e31a22" class="path2"
                  d="M145.306 20.39l-4.481 11.564h-2.833l5.397-13.823-5.054-12.98h3.103l4.135 10.721 4.173-10.721h2.795l-5.017 12.98 5.363 13.823h-3.141l-4.439-11.564z"/>
            <path fill="#e31a22" class="path3"
                  d="M21.221 13.201s.015-.027.035-.085.051-.145.074-.263a2.836 2.836 0 0 0-.01-1.056 4.193 4.193 0 0 0-.215-.748 4.955 4.955 0 0 0-.421-.82 6.714 6.714 0 0 0-1.464-1.615c-.611-.499-1.331-.938-2.113-1.3s-1.63-.651-2.504-.858a17.17 17.17 0 0 0-2.693-.409c-.228-.017-.455-.022-.684-.034-.114-.005-.229-.011-.343-.013l-.279-.007-.159-.003-.119-.007c-.078-.006-.153-.006-.234-.009-.171-.012-.344-.018-.511-.036a14.436 14.436 0 0 1-1.93-.267 10.268 10.268 0 0 1-1.714-.514 8.563 8.563 0 0 1-1.524-.798c-.479-.314-.926-.678-1.332-1.063s-.769-.79-1.085-1.175a21.135 21.135 0 0 1-.441-.561 9.026 9.026 0 0 1-.191-.263 8.47 8.47 0 0 1-.176-.245A22.21 22.21 0 0 1 .501 0S.446.108.369.321a5.829 5.829 0 0 0-.246.943 9.077 9.077 0 0 0-.054.329c-.014.115-.027.236-.038.363a7.537 7.537 0 0 0-.029.83c.012.596.09 1.278.291 2.015a8.5 8.5 0 0 0 1.014 2.308 9.028 9.028 0 0 0 1.948 2.188c.8.651 1.733 1.187 2.719 1.572a12.35 12.35 0 0 0 3.031.741c.255.031.506.048.759.067.132.008.268.015.402.018l.199.006.514.002c.096.001.193-.002.289-.004l.575-.014 2.205-.043c.707-.012 1.376-.01 2.005.002s1.214.044 1.751.099A8.941 8.941 0 0 1 19.16 12c.433.117.818.267 1.124.442.314.17.546.361.706.508.076.074.138.136.175.18s.056.07.056.07z"/>
            <path fill="#e31a22" class="path4"
                  d="M21.235 20.207s.013-.025.032-.077.047-.131.067-.238a2.575 2.575 0 0 0-.009-.959 3.816 3.816 0 0 0-.195-.678 4.497 4.497 0 0 0-.382-.744 6.088 6.088 0 0 0-1.328-1.466c-.555-.453-1.207-.851-1.918-1.18s-1.479-.59-2.273-.779a15.613 15.613 0 0 0-2.444-.371c-.207-.016-.413-.02-.621-.031-.104-.004-.207-.01-.312-.012l-.397-.01-.107-.006c-.071-.005-.139-.006-.212-.009-.155-.01-2.289-.016-2.441-.033a13.036 13.036 0 0 1-1.751-.242c-.55-.117-1.067-.269-1.554-.465s-.949-.438-1.383-.725c-.434-.285-.84-.615-1.208-.965s-.698-.716-.984-1.067a16.468 16.468 0 0 1-.4-.508 8.715 8.715 0 0 1-.173-.238 9.052 9.052 0 0 1-.16-.223 21.21 21.21 0 0 1-.461-.693c-.107-.167-.163-.262-.163-.262s-.05.098-.12.291c-.068.192-.157.48-.224.855a8.15 8.15 0 0 0-.049.299A9.085 9.085 0 0 0 .031 10a6.916 6.916 0 0 0-.027.754c.01.541.082 1.16.263 1.829a7.76 7.76 0 0 0 .92 2.095 8.177 8.177 0 0 0 1.768 1.986 9.315 9.315 0 0 0 2.467 1.427c.895.345 1.831.567 2.751.673.231.028.46.043.689.061.12.007 2.221.013 2.342.016l.181.005.466.002c.088.001.175-.002.262-.003l.522-.012 2.001-.039a52.28 52.28 0 0 1 1.819.002c.571.012 1.102.04 1.589.09.488.049.93.125 1.321.233.393.106.742.242 1.02.401.285.155.496.328.64.461.069.067.125.123.159.164.036.04.052.063.052.063z"/>
            <path fill="#e31a22" class="path5"
                  d="M21.246 27.347s.012-.023.03-.071.043-.121.062-.22c.04-.196.062-.5-.009-.883a3.534 3.534 0 0 0-.18-.625 4.132 4.132 0 0 0-.352-.685 5.575 5.575 0 0 0-1.223-1.349c-.511-.417-1.112-.784-1.765-1.085s-1.361-.543-2.092-.716a14.458 14.458 0 0 0-2.249-.342c-.19-.015-.38-.019-.571-.028-.095-.004-.191-.009-.287-.01l-.233-.006-.132-.003-.099-.006c-.065-.005-.128-.006-.195-.008-.143-.009-3.809-.015-3.95-.03a12.211 12.211 0 0 1-1.612-.223c-.507-.109-.983-.248-1.432-.429s-.873-.403-1.273-.666c-.4-.263-.773-.567-1.112-.888s-.642-.66-.906-.982a17.54 17.54 0 0 1-.368-.468 7.907 7.907 0 0 1-.159-.22 8.442 8.442 0 0 1-.148-.205 19.535 19.535 0 0 1-.424-.637c-.098-.153-.15-.241-.15-.241s-.046.09-.11.268a4.858 4.858 0 0 0-.206.787 7.208 7.208 0 0 0-.045.275 7.925 7.925 0 0 0-.031.303 5.89 5.89 0 0 0-.024.693c.01.497.076 1.067.242 1.683s.437 1.277.847 1.928c.408.65.958 1.285 1.628 1.827a8.58 8.58 0 0 0 2.271 1.313c.823.318 1.685.522 2.532.619.213.026.423.04.633.056.11.006 3.747.012 3.858.015l.166.005.429.002c.081.001.161-.002.241-.003l.481-.012 1.841-.036c.59-.01 1.149-.009 1.675.002s1.014.036 1.463.082a7.51 7.51 0 0 1 1.216.214c.361.098.683.223.939.369.262.142.456.302.59.424.063.062.115.113.146.151.033.038.048.06.048.06z"/>
            <path fill="#058bcd" class="path6"
                  d="M21.824 5.056c-1.757 0-3.435.34-4.974.952.24.094.476.191.706.297a9.913 9.913 0 0 1 2.113 1.3c.461.374.859.784 1.178 1.203.321-.032.647-.049.977-.049 5.395 0 9.769 4.374 9.769 9.769s-4.374 9.769-9.769 9.769c-.042 0-.084-.003-.127-.003l-.002.003-.002-.003a9.72 9.72 0 0 1-4.744-1.301 49.403 49.403 0 0 0-1.329.003l-1.841.036-.481.012c-.08.001-.161.004-.242.003l-.429-.002-.166-.005-1.083-.004A13.443 13.443 0 0 0 21.822 32c7.441 0 13.472-6.032 13.472-13.472.001-7.442-6.031-13.473-13.471-13.473z"/>
            <path fill="#058bcd" class="path7"
                  d="M48.913 31.915h-2.886l-4.461-21.423v21.463h-2.617V5.03h4.195l4.423 21.502 4.27-21.502h4.191v26.925h-2.846V10.3l-4.269 21.616z"/>
            <path fill="#058bcd" class="path8" d="M63.031 31.954V7.76h-4.962V5.029h12.925V7.76h-4.965v24.194h-2.998z"/>
            <path fill="#058bcd" class="path9"
                  d="M79.108 5.029c2.101 0 3.603.493 4.498 1.481.898.988 1.349 2.481 1.349 4.481v1.269c0 1.437-.232 2.597-.695 3.481-.46.884-1.28 1.507-2.46 1.866 1.309.36 2.238 1.04 2.789 2.04s.826 2.245.826 3.732v2.27c0 2.026-.501 3.583-1.499 4.674-1.002 1.09-2.551 1.634-4.655 1.634h-6.192V5.031h6.038zm-.733 11.424c1.205 0 2.11-.244 2.714-.731.601-.487.901-1.435.901-2.847v-1.576c0-1.205-.223-2.097-.673-2.674-.447-.578-1.212-.866-2.288-.866h-2.961v8.693h2.307zm.886 12.77c2.128 0 3.193-1.218 3.193-3.654v-2.384c0-1.514-.304-2.559-.905-3.135-.604-.578-1.559-.866-2.864-.866h-2.617v10.039h3.193z"/>
            <path fill="#058bcd" class="path10"
                  d="M90.042 27.886l-.779 4.068h-2.078l3.866-20.193h3.262l3.866 20.193h-2.25l-.779-4.068h-5.106zm.288-1.933h4.502L92.55 14.299l-2.22 11.654z"/>
            <path fill="#058bcd" class="path11"
                  d="M101.927 31.954h-2.022V11.761h2.858l4.674 14.596V11.761h1.991v20.193h-2.338l-5.162-16.329v16.329z"/>
            <path fill="#058bcd" class="path12"
                  d="M115.165 23.185l-1.183 1.99v6.78h-2.248V11.761h2.248v9.751l5.368-9.751h2.279l-5.109 9.201 5.281 10.992h-2.307l-4.33-8.769z"/>
        </symbol>
        <symbol id="icon-doc" viewBox="0 0 26 32">
            <title>doc</title>
            <path fill="#048ccd" class="path1"
                  d="M13.075 23.824a.484.484 0 0 1-.487-.48l.001-10.841c0-.265.218-.48.487-.48s.487.215.487.48l-.001 10.841a.485.485 0 0 1-.487.48z"/>
            <path fill="#048ccd" class="path2"
                  d="M13.075 23.824a.497.497 0 0 1-.345-.141l-4.199-4.145c-.19-.187-.19-.492 0-.679s.498-.187.688 0l3.854 3.806 3.854-3.806c.19-.187.499-.187.688 0s.19.492 0 .679l-4.199 4.145a.485.485 0 0 1-.343.141z"/>
            <path fill="#048ccd" class="path3"
                  d="M23.716 32H2.433C1.092 32 0 30.923 0 29.597V2.403C0 1.077 1.092 0 2.433 0h15.456c.269 0 .487.215.487.48s-.218.48-.487.48H2.433c-.805 0-1.46.647-1.46 1.442v27.194c0 .795.655 1.441 1.46 1.441h21.283c.805 0 1.46-.646 1.46-1.441V8.366c0-.265.218-.48.486-.48s.487.215.487.48v21.231c.001 1.325-1.09 2.402-2.433 2.402z"/>
            <path fill="#048ccd" class="path4"
                  d="M25.663 8.847h-7.774a.483.483 0 0 1-.486-.48V.69c0-.266.218-.48.486-.48s.487.215.487.48v7.195h7.287c.269 0 .487.215.487.48s-.217.482-.487.482z"/>
            <path fill="#048ccd" class="path5"
                  d="M25.663 8.847a.487.487 0 0 1-.348-.146L17.541.817c-.187-.189-.183-.495.01-.679s.5-.181.688.01l7.774 7.884a.476.476 0 0 1-.01.679.49.49 0 0 1-.34.136z"/>
        </symbol>
        <symbol id="icon-ios-android" viewBox="0 0 27 32">
            <title>ios-android</title>
            <path class="path1"
                  d="M25.546 9.773h-8.212V3.068C17.334 1.376 15.97 0 14.294 0H3.039C1.363 0-.001 1.377-.001 3.068v21.523c0 1.692 1.364 3.069 3.04 3.069h9.905v2.892c0 .798.643 1.448 1.434 1.448h11.169c.79 0 1.433-.649 1.433-1.447V11.221c0-.798-.644-1.447-1.434-1.447zm-7.422 17.958l7.458-12.446v12.446h-7.458zm-.79-3.139v-10.55h7.359L16.49 27.731h-2.148v-.072c1.655-.026 2.993-1.392 2.993-3.067zM1.398 22.721V4.798h12.073L2.73 22.721H1.398zM15.105 4.798h.832v17.923H4.365l10.74-17.923zm10.441 6.386c.02 0 .036.016.036.037v1.41h-8.248v-1.447h8.212zM3.04 1.411h11.255c.905 0 1.642.744 1.642 1.657v.318H1.399v-.318A1.65 1.65 0 0 1 3.04 1.411zM1.398 24.592v-.459h14.539v.459a1.65 1.65 0 0 1-1.642 1.657H3.039a1.65 1.65 0 0 1-1.641-1.657zm12.944 5.96v-1.41h4.921v1.447h-4.885a.036.036 0 0 1-.036-.037zm11.205.037h-4.886v-1.447h4.921v1.411a.036.036 0 0 1-.035.036z"/>
            <path class="path2"
                  d="M8.667 24.556a.701.701 0 0 0-.699.706.701.701 0 0 0 .699.706.701.701 0 0 0 .699-.706.703.703 0 0 0-.699-.706z"/>
        </symbol>
        <symbol id="icon-online-pc" viewBox="0 0 41 32">
            <title>online-pc</title>
            <path class="path1"
                  d="M38.431 0H2.055A2.054 2.054 0 0 0 0 2.049v22.322c0 1.13.922 2.049 2.055 2.049h11.936v4.273h-2.842c-.362 0-.656.293-.656.654s.294.654.656.654h18.188c.362 0 .656-.293.656-.654s-.294-.654-.656-.654h-2.842v-4.272h11.936a2.054 2.054 0 0 0 2.055-2.049V2.05c0-1.13-.922-2.049-2.055-2.049zM25.184 30.692h-9.881v-4.273h9.881v4.273zm13.99-6.322a.742.742 0 0 1-.743.741H2.055a.743.743 0 0 1-.743-.741V2.048c0-.409.333-.741.743-.741h36.376c.41 0 .743.333.743.741V24.37z"/>
            <path class="path2"
                  d="M37.032 2.79H3.454a.655.655 0 0 0-.656.654v19.531c0 .361.294.654.656.654h33.578a.655.655 0 0 0 .656-.654V3.443a.655.655 0 0 0-.656-.654zm-.656 19.532H4.11V4.098h32.266v18.224z"/>
            <path class="path3"
                  d="M13.247 20.142a6.924 6.924 0 0 0 4.138-1.366c.011-.007.023-.013.033-.021a.555.555 0 0 0 .058-.049 6.916 6.916 0 0 0 2.723-5.496c0-3.822-3.119-6.932-6.952-6.932s-6.952 3.11-6.952 6.932c0 3.822 3.119 6.932 6.952 6.932zm-5.6-6.278h5.273l3.163 4.205a5.642 5.642 0 0 1-8.436-4.205zm11.241-.654a5.602 5.602 0 0 1-1.757 4.073l-3.227-4.291V7.625c2.801.325 4.984 2.705 4.984 5.585zm-6.296-5.585v4.931H7.647a5.641 5.641 0 0 1 4.945-4.931z"/>
            <path class="path4"
                  d="M22.341 8.283h8.395c.362 0 .656-.293.656-.654s-.294-.654-.656-.654h-8.395c-.362 0-.656.293-.656.654s.294.654.656.654z"/>
            <path class="path5"
                  d="M33.534 12.556h-7.695c-.362 0-.656.293-.656.654s.294.654.656.654h7.695c.362 0 .656-.293.656-.654s-.294-.654-.656-.654z"/>
            <path class="path6"
                  d="M22.341 13.864h.7c.362 0 .656-.293.656-.654s-.294-.654-.656-.654h-.7c-.362 0-.656.293-.656.654s.294.654.656.654z"/>
            <path class="path7"
                  d="M33.534 15.346h-7.695c-.362 0-.656.293-.656.654s.294.654.656.654h7.695c.362 0 .656-.293.656-.654s-.294-.654-.656-.654z"/>
            <path class="path8"
                  d="M22.341 16.654h.7c.362 0 .656-.293.656-.654s-.294-.654-.656-.654h-.7c-.362 0-.656.293-.656.654s.294.654.656.654z"/>
            <path class="path9"
                  d="M33.534 18.137h-7.695c-.362 0-.656.293-.656.654s.294.654.656.654h7.695c.362 0 .656-.293.656-.654s-.294-.654-.656-.654z"/>
            <path class="path10"
                  d="M22.341 19.444h.7c.362 0 .656-.293.656-.654s-.294-.654-.656-.654h-.7c-.362 0-.656.293-.656.654s.294.654.656.654z"/>
            <path class="path11"
                  d="M22.341 11.074h11.193c.362 0 .656-.293.656-.654s-.294-.654-.656-.654H22.341c-.362 0-.656.293-.656.654s.294.654.656.654z"/>
        </symbol>
        <symbol id="icon-pc-version" viewBox="0 0 46 32">
            <title>pc-version</title>
            <path class="path1"
                  d="M41.367 2.909H5.08a.726.726 0 0 0-.726.727v21.818c0 .401.325.727.726.727h36.287a.727.727 0 0 0 .726-.727V3.636a.726.726 0 0 0-.725-.727zm-.725 21.818h-5.08V13.091a.726.726 0 1 0-1.452 0v11.636h-4.355v-3.636a.726.726 0 1 0-1.452 0v3.636h-4.355V16a.726.726 0 1 0-1.452 0v8.727h-4.354v-2.909a.726.726 0 1 0-1.452 0v2.909h-4.355c0-.192-.077-.379-.212-.514S11.801 24 11.61 24a.725.725 0 0 0-.726.727h-5.08V4.363H40.64v20.364z"/>
            <path class="path2"
                  d="M45.722 27.636h-.726V3.342c0-1.843-1.5-3.342-3.345-3.342H4.794a3.346 3.346 0 0 0-3.343 3.342v24.294H.725a.727.727 0 0 0-.726.728v.727A2.91 2.91 0 0 0 2.902 32h40.642a2.91 2.91 0 0 0 2.903-2.909v-.727a.727.727 0 0 0-.725-.728zM2.903 3.342c0-1.041.848-1.888 1.892-1.888h36.857c1.044 0 1.893.847 1.893 1.888v24.294H2.903V3.342zm40.641 27.203H2.902c-.8 0-1.452-.652-1.452-1.455h18.869c0 .402.325.727.726.727H25.4a.727.727 0 0 0 .726-.727h18.87c0 .802-.651 1.455-1.452 1.455z"/>
            <path class="path3"
                  d="M11.612 22.545a2.182 2.182 0 0 0 2.16-2.451l2.136-1.07a2.17 2.17 0 0 0 1.51.612 2.183 2.183 0 0 0 1.965-3.122l2.903-2.909c.284.137.602.213.938.213.387 0 .751-.102 1.066-.281l2.718 2.383a2.182 2.182 0 0 0 2.022 2.989 2.183 2.183 0 0 0 1.794-3.417l3.392-4.674a2.182 2.182 0 1 0 .62-4.273 2.182 2.182 0 0 0-1.793 3.417l-3.392 4.674a2.16 2.16 0 0 0-1.687.19l-2.718-2.383a2.182 2.182 0 0 0-2.022-2.989 2.182 2.182 0 0 0-1.964 3.122l-2.903 2.909a2.152 2.152 0 0 0-.938-.213 2.182 2.182 0 0 0-2.16 2.451l-2.136 1.07a2.17 2.17 0 0 0-1.51-.612 2.182 2.182 0 0 0-.001 4.364zM34.836 8a.727.727 0 0 1 0 1.454.727.727 0 0 1 0-1.454zm-5.807 8a.727.727 0 0 1 0 1.454.727.727 0 0 1 0-1.454zm-5.805-5.091a.727.727 0 0 1 0 1.454.727.727 0 0 1 0-1.454zm-5.806 5.818a.727.727 0 0 1 0 1.454.727.727 0 0 1 0-1.454zm-5.806 2.909a.727.727 0 0 1 0 1.454.727.727 0 0 1 0-1.454z"/>
        </symbol>
        <symbol id="icon-account" viewBox="0 0 34 32">
            <title>account</title>
            <path class="path1"
                  d="M29.293 21.575l-3.141 4.514-2.217-1.819a.56.56 0 1 0-.711.867l2.687 2.206a.577.577 0 0 0 .433.122.568.568 0 0 0 .384-.236l3.488-5.015a.56.56 0 1 0-.922-.64zm-2.907-4.173a7.058 7.058 0 0 0-1.197.109 12.881 12.881 0 0 0 1.575-3.128 2.235 2.235 0 0 0 1.305-2.034v-2.244a2.238 2.238 0 0 0-.562-1.474V5.646a5.033 5.033 0 0 0-1.174-3.663C25.18.665 23.309 0 20.77 0s-4.409.665-5.562 1.983a4.87 4.87 0 0 0-1.159 2.695 7.295 7.295 0 0 0-3.384-.749c-5.832 0-6.172 4.973-6.175 5.053v2.573c-.345.35-.546.818-.562 1.309v1.937c0 .602.27 1.172.736 1.554a8.62 8.62 0 0 0 2.046 3.528v1.537a1.225 1.225 0 0 1-.657 1.078l-3.735 2.341a4.452 4.452 0 0 0-2.319 3.907v2.131h22.515a7.294 7.294 0 1 0 3.872-13.474zM7.86 28.497v1.259H1.123v-1.011a3.346 3.346 0 0 1 1.763-2.939l3.734-2.341a2.327 2.327 0 0 0 1.213-2.046v-2.013l-.179-.168a7.47 7.47 0 0 1-1.947-3.343l-.051-.223-.192-.122a.895.895 0 0 1-.413-.749v-1.937a.985.985 0 0 1 .377-.661l.184-.168V9.016c.01-.16.302-3.962 5.053-3.962a5.865 5.865 0 0 1 3.368.922v2.657c-.36.407-.559.931-.561 1.474v2.244c0 .169.019.337.057.501.015.067.045.126.066.189.027.096.06.19.099.282.144.301.355.566.617.775l.009.029c.034.131.069.257.107.383l.045.147.026.076.059.181.11.312c.017.046.036.088.054.131.046.118.092.232.14.345.012.025.022.055.034.08l.032.072c.015.034.03.063.042.093.055.122.109.24.165.349l.027.059.106.202c.061.114.12.223.18.328.029.055.058.105.084.152.081.139.158.265.232.383l.048.076c.136.211.253.383.352.514.026.038.048.067.07.097.012.017.029.038.04.055v1.857a1.477 1.477 0 0 1-.773 1.301l-5.008 2.733a5.065 5.065 0 0 0-2.634 4.446zm1.122 1.259v-1.259a3.938 3.938 0 0 1 2.054-3.461l5.011-2.728a2.611 2.611 0 0 0 1.358-2.291V17.76l-.109-.131-.021-.025s-.036-.042-.093-.118l-.011-.013a3.351 3.351 0 0 1-.104-.139v-.004a11.37 11.37 0 0 1-.306-.451l-.008-.013a6.39 6.39 0 0 1-.173-.278l-.013-.021a13.861 13.861 0 0 1-.396-.72v-.004a7.632 7.632 0 0 1-.211-.451l-.029-.063a29.34 29.34 0 0 1-.093-.219c-.011-.029-.022-.059-.034-.084-.029-.076-.059-.147-.091-.232-.056-.156-.11-.316-.163-.48l-.031-.097c-.003-.011-.006-.023-.011-.034a9.993 9.993 0 0 1-.146-.547l-.051-.223-.192-.122a1.123 1.123 0 0 1-.52-.943v-2.244a1.11 1.11 0 0 1 .376-.829l.185-.164V5.414l-.015-.013a3.879 3.879 0 0 1 .911-2.678c.93-1.065 2.518-1.6 4.718-1.6 2.192 0 3.777.531 4.708 1.587a3.95 3.95 0 0 1 .911 2.829l-.005 3.571.185.164c.236.211.371.513.37.829v2.244a1.117 1.117 0 0 1-.8 1.069l-.28.084-.09.278a11.81 11.81 0 0 1-1.591 3.208c-.146.21-.303.412-.47.606l-.14.156v.215c-.141.059-.277.131-.414.198-.035.017-.07.029-.104.051a9.56 9.56 0 0 0-.361.198l-.184.114a5.022 5.022 0 0 0-.319.211c-.067.046-.132.097-.197.147a7.604 7.604 0 0 0-.47.387c-.072.063-.146.126-.216.194-.08.08-.157.16-.234.244a9.653 9.653 0 0 0-.19.206 7.922 7.922 0 0 0-.218.261c-.058.072-.112.147-.168.223-.117.16-.227.32-.331.493a5.5 5.5 0 0 0-.145.236 6.346 6.346 0 0 0-.159.307c-.042.08-.084.164-.122.253-.046.101-.092.202-.133.307a8.992 8.992 0 0 0-.235.683c-.045.156-.084.312-.121.467-.017.08-.031.164-.046.244a6.659 6.659 0 0 0-.066.434c-.009.072-.018.143-.025.219a6.899 6.899 0 0 0 .002 1.385c.009.093.027.181.04.269.02.147.038.295.067.442.019.097.048.194.071.291.032.135.063.269.103.4.028.088.062.177.093.265.047.135.094.274.149.404.031.076.067.147.101.219.064.143.13.286.204.425.032.059.069.118.103.177.084.143.168.286.261.425.034.055.072.101.107.152.099.139.2.278.309.413.042.051.084.097.126.143.087.101.168.206.263.303H8.977zm17.404 1.12a6.141 6.141 0 0 1-3.429-1.04 6.164 6.164 0 0 1-.547-.417 3.79 3.79 0 0 1-.176-.16 5.537 5.537 0 0 1-.511-.523 6.65 6.65 0 0 1-.263-.324c-.054-.072-.109-.143-.161-.215a6.569 6.569 0 0 1-.345-.556c-.024-.046-.042-.093-.066-.139a5.953 5.953 0 0 1-.226-.493c-.029-.072-.055-.147-.082-.219a6.222 6.222 0 0 1-.295-1.171c-.011-.067-.024-.139-.032-.206a6.509 6.509 0 0 1-.042-.712 6.099 6.099 0 0 1 .106-1.111c.014-.08.029-.16.046-.236.023-.101.05-.198.077-.299.023-.08.042-.164.069-.244a5.15 5.15 0 0 1 .295-.733c.03-.063.059-.126.091-.189a5.473 5.473 0 0 1 .259-.45c.058-.093.116-.185.179-.278l.1-.131c.131-.177.272-.347.421-.509l.102-.114c.077-.076.158-.152.239-.227.047-.046.094-.088.142-.131.084-.072.171-.143.259-.215l.136-.101c.098-.072.196-.143.299-.211l.022-.013c.39-.251.807-.457 1.243-.615l.111-.038.166-.059a6.175 6.175 0 1 1 1.815 12.076z"/>
        </symbol>
        <symbol id="icon-arrow" viewBox="0 0 41 32">
            <title>arrow</title>
            <path class="path1"
                  d="M40.07 16.604H.634a.617.617 0 1 1-.001-1.221h39.436a.617.617 0 1 1 .001 1.221zM24.442 32a.61.61 0 0 1-.446-1.045l.004-.004 15.19-14.964L24 1.023a.602.602 0 0 1-.012-.851L24 .16a.642.642 0 0 1 .882 0l15.629 15.396a.602.602 0 0 1 .012.851l-.012.012-15.629 15.408a.602.602 0 0 1-.44.173z"/>
        </symbol>
        <symbol id="icon-card" viewBox="0 0 36 32">
            <title>card</title>
            <path class="path1"
                  d="M32.96 0H2.762A2.773 2.773 0 0 0 .001 2.78v18.002a2.775 2.775 0 0 0 2.761 2.78h11.184a.529.529 0 0 0 0-1.057H2.762a1.719 1.719 0 0 1-1.712-1.723V2.78a1.719 1.719 0 0 1 1.712-1.723H32.96a1.719 1.719 0 0 1 1.712 1.723v18.002a.523.523 0 1 0 1.048.002V2.78A2.774 2.774 0 0 0 32.96 0zM14.504 18.567H4.439a.527.527 0 0 0 0 1.053h10.066a.527.527 0 0 0 0-1.053h-.001zm-3.95-9.6V6.716a1.649 1.649 0 0 0-1.643-1.652H5.555a1.648 1.648 0 0 0-1.642 1.652v2.251a1.648 1.648 0 0 0 1.642 1.652h3.356a1.65 1.65 0 0 0 1.644-1.652h-.001zm-5.592 0v-.599h.595a.528.528 0 0 0 0-1.053h-.595v-.599a.595.595 0 0 1 .592-.599h1.158v3.449H5.558a.595.595 0 0 1-.594-.596v-.003h-.001zm3.95.599H7.758V6.117h1.154c.329 0 .595.266.595.595v.603h-.595a.528.528 0 0 0 0 1.053h.595v.599a.595.595 0 0 1-.592.599h-.004zm-4.998 6.151a.524.524 0 1 0 1.048.028V14.593a.524.524 0 1 0-1.048-.028V15.717zm1.677-1.123v1.124a.523.523 0 1 0 1.048.002V14.594a.524.524 0 1 0-1.047 0h-.001zm1.678 0v1.124a.523.523 0 1 0 1.048.002V14.594a.524.524 0 1 0-1.047.001h-.001zm1.678 0v1.124a.523.523 0 1 0 1.048.002V14.594a.524.524 0 1 0-1.047.001h-.001zm3.285 1.123v-1.124a.523.523 0 1 0-1.048-.002V15.717a.525.525 0 1 0 1.05 0h-.002zm1.678 0v-1.124a.523.523 0 1 0-1.048-.002V15.717a.525.525 0 1 0 1.05 0h-.002zm1.153-1.652a.527.527 0 0 0-.524.528v1.124a.523.523 0 1 0 1.048.002V14.593a.526.526 0 0 0-.523-.528h-.001zm2.202 1.652v-1.124a.523.523 0 1 0-1.048-.002V15.717a.524.524 0 1 0 1.048 0zm11.779-5.097a2.778 2.778 0 0 0 0-5.556h-3.356a2.778 2.778 0 0 0 0 5.556h3.356zm-5.068-2.78a1.72 1.72 0 0 1 1.712-1.723h3.356a1.725 1.725 0 1 1 0 3.45h-3.356a1.721 1.721 0 0 1-1.71-1.726h-.001zm.595 6.225c-4.953-.03-8.992 3.96-9.022 8.913s3.96 8.992 8.913 9.022 8.992-3.96 9.022-8.913v-.055a8.95 8.95 0 0 0-8.913-8.967zm0 16.878c-4.369.026-7.932-3.495-7.957-7.864s3.495-7.932 7.864-7.957a7.91 7.91 0 0 1 7.957 7.864v.047a7.895 7.895 0 0 1-7.864 7.911zm4.662-11.096l-6.34 6.378-2.985-3.003a.523.523 0 0 0-.741 0 .532.532 0 0 0 0 .748l3.355 3.375a.526.526 0 0 0 .742 0l6.711-6.753a.527.527 0 0 0 0-.744.517.517 0 0 0-.732-.009l-.009.009z"/>
        </symbol>
        <symbol id="icon-devices" viewBox="0 0 32 32">
            <title>devices</title>
            <path class="path1"
                  d="M17.259 20.863a.51.51 0 0 0 0-1.018H1.097a.08.08 0 0 1-.076-.077V1.098a.076.076 0 0 1 .076-.074h24.631c.041 0 .075.033.076.074v8.989a.51.51 0 1 0 1.021.027V1.097A1.099 1.099 0 0 0 25.728.001H1.097A1.099 1.099 0 0 0 0 1.097v18.67c0 .605.491 1.096 1.096 1.096h9.206v3.086H6.376a.511.511 0 0 0 0 1.022H17.26a.511.511 0 0 0 0-1.022h-.736v-3.086h.736zm-1.757 3.085h-4.179v-3.086h4.18v3.086zm1.757-7.565H2.553a.511.511 0 0 0 0 1.022h14.706c.107-.168-.264-.618 0-1.023zm13.644-4.767H19.889a1.099 1.099 0 0 0-1.097 1.096v18.192A1.099 1.099 0 0 0 19.889 32h11.014A1.099 1.099 0 0 0 32 30.904V12.712a1.099 1.099 0 0 0-1.097-1.096zm-11.09 3.064h11.166v12.215H19.813V14.68zm.076-2.042h11.014c.041 0 .075.033.076.074v.945H19.813v-.945a.076.076 0 0 1 .076-.074zm11.014 18.339H19.889a.076.076 0 0 1-.076-.074v-2.99h11.166v2.99a.076.076 0 0 1-.076.074zm-4.488-2.041h-2.042a.511.511 0 0 0 0 1.022h2.042a.51.51 0 0 0 .001-1.022h-.001z"/>
        </symbol>
        <symbol id="icon-statistics" viewBox="0 0 35 32">
            <title>statistics</title>
            <path class="path1"
                  d="M33.406 4.964a1.654 1.654 0 0 0-1.631 1.863l-6.076 3.059a2.724 2.724 0 0 0-2.152-1.059 2.76 2.76 0 0 0-2.213 4.377l-3.116 3.425a.636.636 0 0 0-.046.057 1.633 1.633 0 0 0-1.501.107l-3.627-2.99a1.644 1.644 0 1 0-2.694.621l-2.526 5.448c-.053-.004-.103-.008-.156-.008a1.653 1.653 0 0 0-1.623 1.916l-3.307 1.817a1.623 1.623 0 0 0-1.097-.423 1.657 1.657 0 0 0-.027 3.311 1.657 1.657 0 0 0 1.669-1.642v-.015a1.545 1.545 0 0 0-.019-.263l3.307-1.817c.299.275.691.428 1.097.427a1.657 1.657 0 0 0 1.151-2.835l2.522-5.451a1.616 1.616 0 0 0 1.01-.232l3.627 2.99a1.642 1.642 0 1 0 2.995-.22.296.296 0 0 0 .05-.05l3.12-3.425c.423.259.909.397 1.406.396a2.756 2.756 0 0 0 2.644-3.474l6.076-3.063c.304.299.713.466 1.139.465.781-.475.882-1.735.406-2.516-.138-.226-.328-.416-.406-.795zM1.642 25.379a.552.552 0 1 1 .549-.556v.004a.548.548 0 0 1-.545.552h-.004zm6.027-3.31a.553.553 0 1 1 .545-.56v.008a.548.548 0 0 1-.545.552zm3.832-8.275a.552.552 0 1 1 .549-.556v.004a.548.548 0 0 1-.547.552h-.002zm6.023 4.964a.552.552 0 1 1 .549-.556v.004c0 .304-.245.55-.549.552zm6.023-5.516a1.656 1.656 0 1 1 1.646-1.665v.008a1.65 1.65 0 0 1-1.643 1.657h-.002zm9.859-6.069a.552.552 0 1 1 .549-.556v.004a.548.548 0 0 1-.547.552h-.002zm-9.859 3.863a.536.536 0 0 0-.385.16.547.547 0 0 0-.007.774l.007.007a.55.55 0 1 0 .385-.94zm0-3.31a.552.552 0 1 0 0-1.104.536.536 0 0 0-.385.16.56.56 0 0 0-.164.392c.001.146.06.286.164.389.101.104.24.163.385.164zm0-2.21a.555.555 0 0 0 .389-.16.56.56 0 0 0 .16-.392.547.547 0 0 0-.544-.549h-.005a.536.536 0 0 0-.385.16.547.547 0 0 0-.007.774l.007.007c.101.103.24.161.385.16zm0-2.206a.555.555 0 0 0 .389-.16.564.564 0 0 0 .16-.392.55.55 0 0 0-1.098 0 .56.56 0 0 0 .164.392c.102.102.24.16.385.16zm0-2.205a.552.552 0 1 0 0-1.104.536.536 0 0 0-.385.16.56.56 0 0 0-.164.392c.001.146.06.286.164.389.101.104.24.162.385.164zm0 20.964a.536.536 0 0 0-.385.16.56.56 0 0 0-.164.392c.001.146.06.286.164.389.101.104.24.163.385.164a.552.552 0 1 0 0-1.104zm0-2.206a.536.536 0 0 0-.385.16.56.56 0 0 0-.164.392.553.553 0 0 0 .549.549.547.547 0 0 0 .549-.544v-.005a.556.556 0 0 0-.16-.392.554.554 0 0 0-.389-.16zm0-2.21a.542.542 0 0 0-.385.164.553.553 0 0 0-.164.389.56.56 0 0 0 .164.392c.101.103.24.161.385.16s.285-.058.389-.16a.56.56 0 0 0 .16-.392.552.552 0 0 0-.549-.552zm0-2.205a.542.542 0 0 0-.385.164.544.544 0 0 0-.01.768l.01.01a.542.542 0 0 0 .774 0 .552.552 0 0 0-.389-.941zm0 15.447a.542.542 0 0 0-.385.164.553.553 0 0 0-.164.389.56.56 0 0 0 .164.392c.101.103.24.161.385.16s.285-.058.389-.16a.56.56 0 0 0 .16-.392.552.552 0 0 0-.549-.552zm0-2.205a.536.536 0 0 0-.385.16.56.56 0 0 0-.164.392c.001.146.06.286.164.389.101.104.24.163.385.164a.552.552 0 1 0 0-1.104zm0-2.206a.536.536 0 0 0-.385.16.547.547 0 0 0-.007.774l.007.007a.55.55 0 1 0 .385-.94zm0-2.21a.542.542 0 0 0-.385.164.553.553 0 0 0-.164.389.56.56 0 0 0 .164.392.544.544 0 0 0 .774 0 .56.56 0 0 0 .16-.392.552.552 0 0 0-.549-.552z"/>
        </symbol>
        <symbol id="icon-browser" viewBox="0 0 41 32">
            <title>browser</title>
            <path class="path1"
                  d="M3.162 3.769a.6.6 0 1 0-.424-1.025.6.6 0 0 0 0 .849.595.595 0 0 0 .423.176zm1.922 0a.6.6 0 1 0-.424-.177l.001.001a.595.595 0 0 0 .423.176zm1.921 0a.6.6 0 1 0-.425-.177l.001.001a.597.597 0 0 0 .424.176zm2.562 0h24.338a.602.602 0 0 0 0-1.203H9.567a.602.602 0 0 0 0 1.203zm26.901 0h1.282a.602.602 0 0 0 0-1.203h-1.282a.602.602 0 0 0 0 1.203zM37.75 0H3.162A3.169 3.169 0 0 0 0 3.168v25.665a3.17 3.17 0 0 0 3.162 3.168H37.75a3.17 3.17 0 0 0 3.162-3.168V3.168A3.169 3.169 0 0 0 37.75 0zM3.162 1.203H37.75a1.965 1.965 0 0 1 1.961 1.965v1.965H1.202V3.168c0-1.084.878-1.963 1.961-1.965zM37.75 30.797H3.162a1.964 1.964 0 0 1-1.961-1.965V6.335H39.71v22.497a1.966 1.966 0 0 1-1.961 1.965z"/>
        </symbol>
        <symbol id="icon-computer" viewBox="0 0 50 32">
            <title>computer</title>
            <path class="path1"
                  d="M48.869 0H1.305A1.307 1.307 0 0 0 0 1.306v24.091c0 .721.584 1.305 1.305 1.306h19.88v4.2h-5.173a.55.55 0 0 0 0 1.098h18.149a.55.55 0 0 0 0-1.098h-5.173v-4.2h19.881a1.307 1.307 0 0 0 1.305-1.306V1.306c0-.721-.584-1.305-1.305-1.306zM27.891 30.902h-5.61v-4.2h5.61v4.2zm21.185-5.505a.211.211 0 0 1-.208.209H1.304a.213.213 0 0 1-.208-.209V1.306a.21.21 0 0 1 .208-.207h47.564a.21.21 0 0 1 .208.207v24.091h-.001zm-1.72-4.257H2.817a.548.548 0 1 0 0 1.096h44.538a.548.548 0 1 0 .009-1.097h-.009.001z"/>
        </symbol>
        <symbol id="icon-phones" viewBox="0 0 46 32">
            <title>phones</title>
            <path class="path1"
                  d="M14.938 0H2.017A2.024 2.024 0 0 0 0 2.025v27.95C0 31.09.902 31.996 2.017 32h12.921a2.024 2.024 0 0 0 2.017-2.025V2.025A2.025 2.025 0 0 0 14.938 0zM1.011 5.091h14.934v21.163H1.011V5.091zm1.006-4.076h12.921a1.01 1.01 0 0 1 1.006 1.01v2.39H1.01v-2.39c0-.556.45-1.008 1.006-1.01zm12.921 29.97H2.017a1.01 1.01 0 0 1-1.006-1.01v-3.042h14.934v3.042a1.01 1.01 0 0 1-1.006 1.01zm-6.46-3.606a1.663 1.663 0 1 0 1.655 1.671v-.007a1.661 1.661 0 0 0-1.655-1.664zm0 2.648a.986.986 0 1 1 .982-.989v.005a.985.985 0 0 1-.982.984zM6.185 3.224h4.585a.338.338 0 1 0 0-.676H6.187c-.187 0-.338.151-.339.337s.151.338.337.339h-.001zm-1.213 0a.34.34 0 0 0 .239-.098.34.34 0 0 0 0-.48.34.34 0 0 0-.478 0 .342.342 0 0 0 0 .48c.064.063.15.098.24.098h-.001zM42.05 1.755a.56.56 0 0 0-.154.377.567.567 0 0 0 .154.38.548.548 0 0 0 .377.155.563.563 0 0 0 .377-.155.565.565 0 0 0 .154-.38.556.556 0 0 0-.154-.377.55.55 0 0 0-.752 0h-.001zM43.972 0H28.146a1.645 1.645 0 0 0-1.639 1.648v28.704A1.644 1.644 0 0 0 28.146 32h15.827a1.645 1.645 0 0 0 1.639-1.648V1.648A1.644 1.644 0 0 0 43.973 0h-.001zm.578 30.352a.58.58 0 0 1-.577.58H28.147a.578.578 0 0 1-.577-.58V28.8h16.982v1.552h-.001zm0-2.619H27.569V4.268h16.982v23.465h-.001zm0-24.533H27.569V1.648a.58.58 0 0 1 .577-.58h15.827c.32.001.578.261.577.58V3.2h-.001zm-6.899-1.6h-3.183a.534.534 0 0 0 0 1.068h3.184a.534.534 0 1 0 0-1.068h-.001zm-3.185 28.8h3.184a.534.534 0 0 0 0-1.068h-3.183a.534.534 0 0 0 0 1.068h-.001z"/>
        </symbol>
        <symbol id="icon-auth" viewBox="0 0 32 32">
            <title>auth</title>
            <path class="path1"
                  d="M32 16C32.005 7.163 24.846-.005 16.011-.011 7.174-.016.006 7.143 0 15.978a16.003 16.003 0 0 0 5.191 11.808l-.018.014.516.437.107.08c.284.229.569.446.853.656.107.068.196.135.284.203.32.213.64.416.96.61l.213.123c.356.203.729.395 1.102.571.018.012.053.025.071.036a16.13 16.13 0 0 0 3.876 1.225l.107.02c.427.073.853.13 1.28.178l.16.012c.427.036.853.059 1.298.059s.871-.023 1.298-.057l.16-.012c.427-.039.853-.096 1.262-.167l.107-.02a16.1 16.1 0 0 0 3.822-1.196c.036-.021.089-.039.124-.06a25.99 25.99 0 0 0 1.067-.546c.071-.048.16-.096.249-.148.32-.178.622-.377.924-.581.107-.073.213-.151.32-.228.249-.178.498-.373.747-.572.053-.044.107-.082.16-.126l.533-.444-.018-.012a15.956 15.956 0 0 0 5.244-11.838zM1.156 16C1.138 7.801 7.771 1.141 15.97 1.125c8.199-.018 14.859 6.615 14.875 14.814a14.846 14.846 0 0 1-5.013 11.154 3.377 3.377 0 0 0-.516-.313l-4.924-2.462a1.281 1.281 0 0 1-.711-1.159v-1.721c.107-.14.231-.3.356-.476a11.793 11.793 0 0 0 1.529-2.981 2.12 2.12 0 0 0 1.209-1.913v-2.062a2.172 2.172 0 0 0-.516-1.378V9.91a4.628 4.628 0 0 0-1.102-3.412 8.133 8.133 0 0 0-10.311 0 4.62 4.62 0 0 0-1.102 3.413v2.711a2.189 2.189 0 0 0-.516 1.38v2.062a2.102 2.102 0 0 0 .782 1.641 11.16 11.16 0 0 0 1.796 3.717v1.689c.004.475-.256.914-.676 1.138l-4.604 2.51c-.148.084-.29.176-.427.277A14.822 14.822 0 0 1 1.157 16z"/>
        </symbol>
        <symbol id="icon-business" viewBox="0 0 32 32">
            <title>business</title>
            <path class="path1"
                  d="M28.8 12.8a3.2 3.2 0 1 0 0 6.4 3.2 3.2 0 0 0 0-6.4zm0 5.333a2.133 2.133 0 1 1 0-4.266 2.133 2.133 0 0 1 0 4.266zM3.2 12.8a3.2 3.2 0 1 0 0 6.4 3.2 3.2 0 0 0 0-6.4zm0 5.333a2.133 2.133 0 1 1 0-4.266 2.133 2.133 0 0 1 0 4.266zM16 0a3.2 3.2 0 1 0 0 6.4A3.2 3.2 0 0 0 16 0zm0 5.334a2.133 2.133 0 1 1 0-4.266 2.133 2.133 0 0 1 0 4.266zM16 25.6a3.2 3.2 0 1 0 0 6.4 3.2 3.2 0 0 0 0-6.4zm0 5.333a2.133 2.133 0 1 1 0-4.266 2.133 2.133 0 0 1 0 4.266z"/>
            <path class="path2"
                  d="M10.858 7.603l-3.254 3.254a.512.512 0 0 0 .723.723l3.254-3.255a.512.512 0 0 0-.723-.722zm12.802 3.978a.51.51 0 0 0 .721-.721L21.14 7.618a.51.51 0 0 0-.721.721l3.241 3.242zm-.002 8.838l-3.251 3.242c-.2.199-.2.522 0 .721s.523.199.723 0l3.251-3.241c.2-.199.2-.522 0-.721s-.523-.199-.723-.001zm-15.319-.001a.508.508 0 1 0-.719.717l3.238 3.229c.199.198.521.198.719 0s.199-.52 0-.717l-3.238-3.229z"/>
        </symbol>
        <symbol id="icon-clear" viewBox="0 0 24 32">
            <title>clear</title>
            <path class="path1"
                  d="M.048 29.726c1.011-2 1.563-4.237 1.596-6.471l.109-7.393a3.959 3.959 0 0 1 .649-2.115l3.846-5.875a.402.402 0 0 1 .047-.06 7.72 7.72 0 0 1 2.148-1.626l2.445-3.634a2.417 2.417 0 0 1 2.459-1.019l.318-.472a2.412 2.412 0 0 1 2.008-1.062c.473 0 .933.136 1.328.394a2.35 2.35 0 0 1 .824 3.036l.135-.037c.71-.19 1.472-.075 2.092.313s1.048 1.021 1.173 1.734a2.566 2.566 0 0 1-.793 2.317c2.107.359 3.714 2.168 3.714 4.342 0 2.055-1.436 3.786-3.373 4.271.018.019.036.037.053.057.81.897.749 2.244-.138 3.066L17.14 22.78a13.122 13.122 0 0 1-5.025 2.891l-2.111 6.023a.458.458 0 0 1-.585.28.453.453 0 0 1-.286-.577l1.908-5.443a12.8 12.8 0 0 1-1.471.237c-.254.026-.48-.155-.506-.404s.158-.472.411-.498a12.252 12.252 0 0 0 7.035-3.171l3.548-3.287a1.273 1.273 0 0 0 .081-1.803 1.339 1.339 0 0 0-1.777-.173l-2.823 2.101a3.192 3.192 0 0 1-3.773.036l-.009-.007-1.703-1.281a2.454 2.454 0 0 1-.799-2.905l2.037-4.878a.46.46 0 0 1 .296-.263l7.709-2.241a1.671 1.671 0 0 0 1.022-1.825c-.082-.469-.352-.868-.76-1.123s-.889-.328-1.352-.204l-7.975 2.201a6.826 6.826 0 0 0-3.228 1.928l-3.825 5.843a3.057 3.057 0 0 0-.502 1.637l-.109 7.392a15.808 15.808 0 0 1-1.692 6.861.46.46 0 0 1-.618.203.448.448 0 0 1-.207-.607zm23.176-17.627c0-1.93-1.596-3.501-3.557-3.501s-3.557 1.57-3.557 3.501 1.596 3.501 3.557 3.501 3.557-1.57 3.557-3.501zm-8.243 6.135l2.823-2.101.024-.017c-1.555-.692-2.64-2.232-2.64-4.018 0-1.086.402-2.081 1.066-2.85l-2.656.772-.897 2.265a9.241 9.241 0 0 0-.419 5.49l.127.552a2.26 2.26 0 0 0 2.572-.094zm-4.875-3.088a1.554 1.554 0 0 0 .506 1.84l.675.508a10.13 10.13 0 0 1 .556-5.537l.638-1.611-.421.123-1.953 4.677zm6.807-11.97c.219-.325.296-.715.217-1.098s-.305-.712-.636-.928a1.496 1.496 0 0 0-.819-.243 1.49 1.49 0 0 0-1.24.655l-2.317 3.443 4.378-1.208.418-.621zM10.76 5.38l2.002-2.975a1.49 1.49 0 0 0-1.104.648L9.94 5.606l.046-.013.774-.213z"/>
        </symbol>
        <symbol id="icon-devices2" viewBox="0 0 32 32">
            <title>devices2</title>
            <path class="path1"
                  d="M17.259 20.864a.511.511 0 0 0 0-1.022H1.097a.078.078 0 0 1-.076-.076V1.096c0-.04.036-.076.076-.076h24.631c.04 0 .076.035.076.076v8.987a.51.51 0 1 0 1.022 0V1.096c0-.605-.492-1.097-1.097-1.097H1.098C.493-.001.001.491.001 1.096v18.67c0 .605.492 1.097 1.097 1.097h9.205v3.084H6.377a.511.511 0 0 0 0 1.022h10.884a.511.511 0 0 0 0-1.022h-.736v-3.084h.735zm-1.757 3.084h-4.179v-3.084h4.18v3.084z"/>
            <path class="path2" d="M17.259 16.382H2.553a.51.51 0 1 0 0 1.022h14.706a.511.511 0 0 0 0-1.022z"/>
            <path class="path3"
                  d="M30.903 11.616H19.889c-.605 0-1.097.492-1.097 1.097v18.19c0 .605.492 1.097 1.097 1.097h11.014c.605 0 1.097-.492 1.097-1.098v-18.19c0-.605-.492-1.097-1.097-1.097zm-11.09 3.064h11.166v12.213H19.813V14.68zm.076-2.043h11.014c.04 0 .076.035.076.076v.945H19.813v-.945c0-.04.035-.076.076-.076zm11.014 18.342H19.889a.079.079 0 0 1-.076-.076v-2.988h11.166v2.988c0 .04-.035.076-.076.076z"/>
            <path class="path4" d="M26.417 28.936h-2.042a.511.511 0 0 0 0 1.022h2.042a.51.51 0 1 0 0-1.022z"/>
        </symbol>
        <symbol id="icon-forex" viewBox="0 0 35 32">
            <title>forex</title>
            <path class="path1"
                  d="M33.405 4.965a1.65 1.65 0 0 0-1.63 1.859l-6.074 3.06a2.727 2.727 0 0 0-2.153-1.057c-1.51 0-2.738 1.237-2.738 2.758 0 .604.194 1.163.523 1.618l-3.117 3.426a.772.772 0 0 0-.044.056 1.63 1.63 0 0 0-1.5.106l-3.627-2.989a1.65 1.65 0 0 0-1.545-2.216 1.65 1.65 0 0 0-1.643 1.655c0 .461.189.879.492 1.18L7.825 19.87a1.65 1.65 0 0 0-1.78 1.91L2.74 23.596a1.626 1.626 0 0 0-1.097-.424c-.907 0-1.643.742-1.643 1.655s.737 1.655 1.643 1.655a1.65 1.65 0 0 0 1.622-1.918l3.305-1.816c.291.264.675.424 1.097.424a1.65 1.65 0 0 0 1.643-1.655 1.66 1.66 0 0 0-.492-1.18l2.524-5.449a1.629 1.629 0 0 0 1.011-.232l3.627 2.99a1.65 1.65 0 0 0 1.545 2.216 1.65 1.65 0 0 0 1.643-1.655 1.66 1.66 0 0 0-.195-.782.47.47 0 0 0 .051-.049l3.116-3.425c.412.25.894.394 1.408.394 1.51 0 2.738-1.238 2.738-2.759 0-.247-.033-.487-.094-.715l6.074-3.059c.296.287.697.464 1.139.464.906 0 1.643-.742 1.643-1.655s-.738-1.655-1.643-1.655zM1.643 25.379a.551.551 0 0 1 0-1.104.551.551 0 0 1 0 1.104zm6.024-3.31a.551.551 0 0 1 0-1.104.55.55 0 0 1 .547.552.55.55 0 0 1-.547.552zm3.833-8.276a.551.551 0 0 1 0-1.104.551.551 0 0 1 0 1.104zm6.024 4.966a.551.551 0 0 1 0-1.104.551.551 0 0 1 0 1.104zm6.024-5.517c-.906 0-1.643-.742-1.643-1.655s.737-1.655 1.643-1.655 1.643.742 1.643 1.655c0 .912-.738 1.655-1.643 1.655zm9.857-6.07a.551.551 0 0 1 0-1.104.551.551 0 0 1 0 1.104z"/>
            <path class="path2"
                  d="M23.548 11.034a.552.552 0 0 0 0 1.103.548.548 0 0 0 .547-.552.552.552 0 0 0-.547-.551z"/>
            <path class="path3"
                  d="M23.548 7.724a.548.548 0 0 0 .547-.552.55.55 0 0 0-.547-.552.55.55 0 0 0-.547.552c0 .145.058.288.16.39a.544.544 0 0 0 .387.162z"/>
            <path class="path4"
                  d="M23.548 5.517a.548.548 0 0 0 .547-.552.552.552 0 0 0-.547-.551.552.552 0 0 0 0 1.103z"/>
            <path class="path5"
                  d="M23.548 3.31a.548.548 0 0 0 .547-.552.55.55 0 0 0-.547-.552.55.55 0 0 0-.547.552.548.548 0 0 0 .547.552z"/>
            <path class="path6"
                  d="M23.548 1.104a.548.548 0 0 0 .547-.552.553.553 0 0 0-.547-.552.548.548 0 0 0-.547.552.553.553 0 0 0 .547.552z"/>
            <path class="path7"
                  d="M23.548 22.069a.552.552 0 0 0 0 1.103.548.548 0 0 0 .547-.552.552.552 0 0 0-.547-.551z"/>
            <path class="path8"
                  d="M23.548 19.862a.547.547 0 0 0-.547.551c0 .145.058.288.16.39s.244.162.387.162a.55.55 0 0 0 .547-.552.552.552 0 0 0-.547-.551z"/>
            <path class="path9"
                  d="M23.548 17.655a.548.548 0 0 0-.547.552.548.548 0 0 0 .547.552.548.548 0 0 0 .547-.552.548.548 0 0 0-.547-.552z"/>
            <path class="path10"
                  d="M23.548 15.448a.552.552 0 0 0 0 1.103.548.548 0 0 0 .547-.552.554.554 0 0 0-.16-.39.553.553 0 0 0-.387-.161z"/>
            <path class="path11"
                  d="M23.548 30.896a.547.547 0 0 0-.547.551.553.553 0 0 0 .547.552.548.548 0 0 0 .547-.552.552.552 0 0 0-.547-.551z"/>
            <path class="path12"
                  d="M23.548 28.69a.548.548 0 0 0-.547.552.553.553 0 0 0 .547.552.548.548 0 0 0 .547-.552.548.548 0 0 0-.547-.552z"/>
            <path class="path13"
                  d="M23.548 26.483a.552.552 0 0 0 0 1.103.548.548 0 0 0 .547-.552.552.552 0 0 0-.547-.551z"/>
            <path class="path14"
                  d="M23.548 24.276a.548.548 0 0 0-.547.552.55.55 0 0 0 .547.552.55.55 0 0 0 .547-.552.548.548 0 0 0-.547-.552z"/>
        </symbol>
        <symbol id="icon-mphone" viewBox="0 0 17 17">
            <path d="M12.924 11.246c-.555-.548-1.249-.548-1.8 0-.421.418-.842.835-1.256 1.259-.113.117-.209.141-.347.064-.272-.149-.562-.269-.824-.432-1.22-.768-2.243-1.755-3.148-2.865-.45-.552-.849-1.143-1.129-1.808-.056-.134-.046-.223.064-.332.421-.407.831-.825 1.245-1.242.577-.58.577-1.259-.003-1.843-.33-.333-.659-.658-.988-.991-.34-.34-.676-.683-1.019-1.019-.555-.54-1.248-.54-1.8.004-.424.418-.831.846-1.263 1.256-.4.379-.601.842-.644 1.383-.067.881.149 1.712.453 2.522.623 1.677 1.571 3.166 2.72 4.531a16.832 16.832 0 0 0 5.575 4.362c.976.474 1.988.838 3.088.898.757.043 1.415-.148 1.942-.739.361-.403.768-.771 1.15-1.157.566-.573.569-1.266.007-1.832a481.477 481.477 0 0 0-2.023-2.019zM12.249 8.426l1.305-.223a5.83 5.83 0 0 0-1.631-3.148 5.804 5.804 0 0 0-3.325-1.659l-.184 1.313a4.5 4.5 0 0 1 2.575 1.284 4.505 4.505 0 0 1 1.26 2.433zM14.29 2.752A9.628 9.628 0 0 0 8.771 0l-.184 1.313a8.352 8.352 0 0 1 4.769 2.377 8.331 8.331 0 0 1 2.338 4.51L17 7.977a9.704 9.704 0 0 0-2.71-5.225z"/>
        </symbol>
        <symbol id="icon-graph" viewBox="0 0 44 32">
            <title>graph</title>
            <path class="path1"
                  d="M8.111 15.359c.467.311 1.02.492 1.618.492 1.115 0 2.07-.632 2.565-1.549l7.41 2.08c0 .007-.003.014-.003.022 0 1.627 1.316 2.95 2.928 2.95 1.616 0 2.933-1.325 2.933-2.95 0-.273-.051-.533-.121-.785L35.674 5.327a2.896 2.896 0 0 0 1.717.573c1.617 0 2.931-1.324 2.931-2.949S39.007.001 37.391.001c-1.617 0-2.932 1.324-2.932 2.95 0 .525.15 1.011.39 1.439L24.826 14.471a2.909 2.909 0 0 0-2.197-1.016c-1.17 0-2.18.702-2.65 1.708l-7.338-2.06c.005-.068.02-.13.02-.2a2.94 2.94 0 0 0-2.932-2.95c-1.617 0-2.93 1.322-2.93 2.95 0 .571.171 1.098.451 1.55L.158 22.451a.63.63 0 0 0 .051.885.616.616 0 0 0 .878-.053l7.025-7.924zM37.392 1.252c.932 0 1.688.763 1.688 1.698 0 .936-.757 1.699-1.688 1.699a1.697 1.697 0 0 1-1.685-1.699 1.696 1.696 0 0 1 1.685-1.698zM22.631 14.707c.932 0 1.689.761 1.689 1.699 0 .936-.757 1.699-1.689 1.699a1.698 1.698 0 0 1-1.688-1.699c0-.938.761-1.699 1.688-1.699zM9.729 11.203c.933 0 1.689.763 1.689 1.7s-.755 1.696-1.689 1.696c-.927 0-1.684-.76-1.684-1.696s.757-1.7 1.684-1.7z"/>
            <path class="path2"
                  d="M43.949 20.14l-7.529-3.558c.013-.117.037-.233.037-.351 0-1.63-1.316-2.952-2.931-2.952-1.621 0-2.93 1.322-2.93 2.952 0 .574.169 1.106.452 1.56l-7.637 8.722a2.862 2.862 0 0 0-1.465-.41 2.89 2.89 0 0 0-1.851.681l-4.516-3.479c.138-.341.217-.717.217-1.108 0-1.626-1.316-2.949-2.931-2.949-1.617 0-2.931 1.325-2.931 2.949 0 .262.047.51.109.751l-8.871 5.57a.628.628 0 0 0-.198.863.62.62 0 0 0 .858.2l8.783-5.515a2.909 2.909 0 0 0 2.25 1.081c.776 0 1.476-.311 2.006-.812l4.453 3.427a2.969 2.969 0 0 0-.308 1.287c0 1.628 1.316 2.952 2.93 2.952s2.93-1.324 2.93-2.952c0-.63-.201-1.215-.54-1.698l7.579-8.661a2.922 2.922 0 0 0 1.613.487c1.052 0 1.97-.566 2.483-1.407l7.41 3.498c.311.146.68.013.827-.299a.63.63 0 0 0-.302-.83zM14.52 22.495c-.078.435-.32.814-.66 1.067a1.674 1.674 0 0 1-2.185-.16c-.297-.3-.482-.71-.492-1.165 0-.014-.006-.025-.006-.038 0-.936.757-1.697 1.689-1.697.928 0 1.687.761 1.687 1.697a1.901 1.901 0 0 1-.033.296zm7.426 8.253a1.695 1.695 0 0 1-1.688-1.695c0-.176.036-.343.088-.503.128-.418.406-.763.781-.973.241-.138.52-.222.819-.222a1.686 1.686 0 0 1 1.526.987c.102.217.158.455.158.712a1.688 1.688 0 0 1-1.684 1.695zm12.93-13.512a1.671 1.671 0 0 1-1.348.692c-.281 0-.538-.075-.768-.197a1.68 1.68 0 0 1-.824-.957 1.72 1.72 0 0 1-.094-.543c0-.938.756-1.7 1.686-1.7a1.69 1.69 0 0 1 1.663 1.468c.013.078.024.151.024.231a1.697 1.697 0 0 1-.338 1.005z"/>
        </symbol>
        <symbol id="icon-phone1" viewBox="0 0 19 32">
            <title>phone1</title>
            <path class="path1"
                  d="M15.544 1.755c-.096.101-.154.24-.154.379s.058.277.154.379c.1.096.233.155.377.155a.558.558 0 0 0 .377-.155c.096-.101.154-.24.154-.379s-.058-.278-.154-.379a.553.553 0 0 0-.754 0z"/>
            <path class="path2"
                  d="M17.466 0H1.639C.735 0 0 .739 0 1.647v28.706C0 31.261.735 32 1.639 32h15.827c.904 0 1.639-.739 1.639-1.647V1.647C19.105.739 18.37 0 17.466 0zm.577 30.353a.58.58 0 0 1-.577.58H1.639a.58.58 0 0 1-.577-.58V28.8h16.982v1.553zm0-2.62H1.061V4.267h16.982v23.466zm0-24.533H1.061V1.647c0-.32.259-.58.577-.58h15.827a.58.58 0 0 1 .577.58V3.2z"/>
            <path class="path3"
                  d="M11.144 1.6H7.96c-.293 0-.531.238-.531.533s.237.533.531.533h3.184c.293 0 .531-.238.531-.533s-.237-.533-.53-.533z"/>
            <path class="path4"
                  d="M7.96 30.4h3.184c.293 0 .531-.238.531-.533s-.237-.533-.531-.533H7.96c-.293 0-.531.238-.531.533s.237.533.531.533z"/>
        </symbol>
        <symbol id="icon-phone2" viewBox="0 0 17 32">
            <title>phone2</title>
            <path class="path1"
                  d="M14.938 0H2.017A2.024 2.024 0 0 0 0 2.026v27.948C0 31.091.905 32 2.017 32h12.921a2.024 2.024 0 0 0 2.017-2.026V2.026A2.024 2.024 0 0 0 14.938 0zM1.011 5.092h14.934v21.163H1.011V5.092zm1.006-4.077h12.921a1.01 1.01 0 0 1 1.006 1.011v2.389H1.011V2.026a1.01 1.01 0 0 1 1.006-1.011zm12.921 29.97H2.017a1.01 1.01 0 0 1-1.006-1.011v-3.043h14.934v3.043a1.01 1.01 0 0 1-1.006 1.011z"/>
            <path class="path2"
                  d="M8.478 27.38c-.913 0-1.655.746-1.655 1.663s.743 1.663 1.655 1.663 1.655-.746 1.655-1.663a1.66 1.66 0 0 0-1.655-1.663zm0 2.648a.985.985 0 0 1 0-1.972c.542 0 .982.442.982.986s-.44.986-.982.986z"/>
            <path class="path3" d="M6.186 3.225h4.583a.338.338 0 0 0 0-.676H6.186a.337.337 0 0 0 0 .676z"/>
            <path class="path4"
                  d="M4.973 3.225a.34.34 0 0 0 0-.678.344.344 0 0 0-.239.099.346.346 0 0 0 0 .48.34.34 0 0 0 .239.099z"/>
        </symbol>
        <symbol id="icon-shield" viewBox="0 0 31 32">
            <title>shield</title>
            <path class="path1"
                  d="M15.57 2.774L3.335 6.424a.385.385 0 0 0-.275.359c-.004.169-.074 4.184 1.412 8.98 2.496 8.056 7.385 11.757 11.046 13.443a.387.387 0 0 0 .326 0c6.634-3.055 9.668-8.997 11.045-13.443 1.486-4.796 1.416-8.811 1.412-8.98a.385.385 0 0 0-.275-.359l-12.234-3.65a.382.382 0 0 0-.222 0zm11.959 4.303c-.012.99-.149 4.504-1.384 8.483-1.321 4.253-4.208 9.921-10.464 12.876-6.256-2.955-9.143-8.624-10.464-12.876-1.236-3.978-1.372-7.493-1.384-8.483l11.849-3.535L27.53 7.077z"/>
            <path class="path2"
                  d="M31.361 4.026a.383.383 0 0 0-.296-.364L15.772.011a.395.395 0 0 0-.181 0L.296 3.662a.383.383 0 0 0-.295.364C0 4.077-.091 9.241 1.763 15.22c3.11 10.036 9.197 14.645 13.756 16.744a.386.386 0 0 0 .324 0c8.26-3.804 12.04-11.206 13.756-16.744 1.853-5.98 1.762-11.143 1.761-11.194zm-2.499 10.968c-1.659 5.354-5.291 12.492-13.181 16.199C7.799 27.49 4.167 20.362 2.507 15.016.936 9.958.784 5.499.772 4.336L15.681.777l14.908 3.559c-.011 1.16-.161 5.603-1.727 10.658z"/>
        </symbol>
        <symbol id="icon-time" viewBox="0 0 33 32">
            <title>time</title>
            <path class="path1"
                  d="M19.046 16.446l5.645-7.756c.147-.203.125-.482-.053-.659s-.459-.199-.663-.053l-7.796 5.616a2.693 2.693 0 0 0-2.523 2.677c0 1.48 1.21 2.684 2.697 2.684a2.694 2.694 0 0 0 2.691-2.509zm-.273-1.363a2.7 2.7 0 0 0-1.224-1.217l4.435-3.195-3.211 4.412zm-4.091 1.189c0-.918.751-1.665 1.673-1.665s1.673.747 1.673 1.665-.751 1.665-1.673 1.665a1.671 1.671 0 0 1-1.673-1.665z"/>
            <path class="path2"
                  d="M32.71 16.267a16.013 16.013 0 0 0-1.217-6.135.46.46 0 0 0-.075-.175 16.416 16.416 0 0 0-3.393-5.051l-.011-.011a.501.501 0 0 0-.224-.223 16.441 16.441 0 0 0-5.11-3.4.513.513 0 0 0-.131-.055A16.18 16.18 0 0 0 16.377 0l-.021-.001-.022.001A16.346 16.346 0 0 0 4.803 4.755l-.011.01a16.179 16.179 0 0 0-3.4 4.932 16.071 16.071 0 0 0-1.39 6.574c0 3.271.975 6.427 2.819 9.127a2.69 2.69 0 0 0 2.229 1.165h.927c.283 0 .512-.228.512-.509s-.229-.509-.512-.509H5.05a1.667 1.667 0 0 1-1.382-.72 15.294 15.294 0 0 1-1.271-2.25l1.539-.634a.51.51 0 1 0-.392-.942l-1.54.634a15.125 15.125 0 0 1-.969-4.854h1.664a.51.51 0 1 0 0-1.02H1.035c.055-1.675.378-3.302.966-4.855l1.542.635a.514.514 0 0 0 .67-.276.51.51 0 0 0-.277-.666l-1.54-.635a15.151 15.151 0 0 1 2.766-4.113L6.339 7.02a.514.514 0 0 0 .724 0c.2-.199.2-.521 0-.72L5.886 5.129a15.339 15.339 0 0 1 4.131-2.758l.641 1.539a.513.513 0 0 0 .947-.39l-.641-1.54a15.33 15.33 0 0 1 4.882-.956V2.68a.512.512 0 0 0 1.024 0V1.025a15.1 15.1 0 0 1 4.876.968L21.11 3.52a.51.51 0 0 0 .473.705.514.514 0 0 0 .474-.315l.634-1.524a15.429 15.429 0 0 1 4.121 2.76L25.652 6.3a.507.507 0 0 0 .362.869c.131 0 .262-.05.362-.149l1.16-1.154a15.397 15.397 0 0 1 2.77 4.101l-1.527.629a.508.508 0 0 0 .197.981.523.523 0 0 0 .196-.039l1.531-.631a14.983 14.983 0 0 1 .976 4.85h-1.664a.51.51 0 1 0 0 1.02h1.665a15.064 15.064 0 0 1-.967 4.855l-1.541-.635a.51.51 0 1 0-.392.942l1.54.634c-.357.778-.781 1.53-1.272 2.25-.307.45-.824.72-1.382.72h-.927c-.283 0-.512.228-.512.509s.229.509.512.509h.927a2.69 2.69 0 0 0 2.229-1.165 16.074 16.074 0 0 0 2.818-9.121v-.006l.001-.004z"/>
            <path class="path3"
                  d="M22.364 20.11H10.345a2.693 2.693 0 0 0-2.697 2.684v6.522c0 1.48 1.21 2.684 2.697 2.684h12.019a2.693 2.693 0 0 0 2.697-2.684v-6.522a2.694 2.694 0 0 0-2.697-2.684zm1.673 9.206c0 .918-.751 1.665-1.673 1.665H10.345a1.671 1.671 0 0 1-1.673-1.665v-6.522c0-.918.751-1.665 1.673-1.665h12.019c.922 0 1.673.747 1.673 1.665v6.522z"/>
            <path class="path4"
                  d="M13.986 22.977a.514.514 0 0 0-.724 0l-2.731 2.718c-.2.199-.2.522 0 .72l2.731 2.718a.514.514 0 0 0 .724 0c.2-.199.2-.522 0-.72l-2.369-2.357 2.369-2.357c.2-.199.2-.522 0-.721z"/>
            <path class="path5"
                  d="M19.449 22.977c-.2-.199-.524-.199-.725 0s-.2.522 0 .721l2.369 2.357-2.369 2.357a.507.507 0 0 0 .362.869c.131 0 .262-.05.362-.149l2.731-2.718c.2-.199.2-.521 0-.72l-2.731-2.718z"/>
            <path class="path6"
                  d="M16.355 26.633a.514.514 0 0 0-.512.51.511.511 0 1 0 .874-.361.517.517 0 0 0-.362-.149z"/>
            <path class="path7"
                  d="M17.994 26.633a.514.514 0 0 0-.512.51.511.511 0 1 0 .874-.361.517.517 0 0 0-.362-.149z"/>
            <path class="path8"
                  d="M14.716 26.633a.514.514 0 0 0-.512.51.511.511 0 1 0 .874-.361.517.517 0 0 0-.362-.149z"/>
        </symbol>
        <symbol id="icon-people" viewBox="0 0 34 32">
            <title>people</title>
            <path class="path1"
                  d="M29.293 21.574l-3.141 4.514-2.217-1.819a.56.56 0 1 0-.712.867l2.687 2.205a.561.561 0 0 0 .817-.112l3.488-5.013a.56.56 0 1 0-.921-.641z"/>
            <path class="path2"
                  d="M26.386 17.404c-.409 0-.807.042-1.197.107a12.83 12.83 0 0 0 1.575-3.129 2.23 2.23 0 0 0 1.307-2.031v-2.246c0-.541-.202-1.064-.561-1.474V5.645c.032-.309.155-2.147-1.174-3.663C25.182.667 23.311 0 20.773 0s-4.409.667-5.562 1.982c-.805.919-1.077 1.954-1.159 2.698-.962-.497-2.096-.749-3.384-.749-5.832 0-6.172 4.971-6.176 5.053v2.571c-.364.396-.561.854-.561 1.308v1.939a2 2 0 0 0 .736 1.552c.463 1.746 1.602 3.065 2.046 3.528v1.54c0 .442-.24.847-.657 1.075L2.321 24.84a4.45 4.45 0 0 0-2.32 3.907v2.132h22.515a7.242 7.242 0 0 0 3.871 1.123c4.024 0 7.298-3.274 7.298-7.298s-3.274-7.298-7.298-7.298zM7.86 28.498v1.256H1.123v-1.009c0-1.218.665-2.338 1.763-2.938l3.734-2.343a2.327 2.327 0 0 0 1.213-2.044v-2.016l-.179-.167c-.015-.013-1.506-1.422-1.947-3.343l-.051-.222-.192-.123a.895.895 0 0 1-.413-.749v-1.939c0-.202.138-.443.377-.659l.185-.167-.001-3.02c.01-.162.302-3.963 5.053-3.963 1.344 0 2.475.31 3.368.923v2.656a2.24 2.24 0 0 0-.561 1.474v2.245c0 .171.02.339.057.501.015.065.045.125.066.188.031.094.056.192.099.281l.002.003c.144.296.353.561.617.773l.009.03c.034.128.069.257.107.382l.045.147.026.078.059.181c.034.099.069.2.11.311.017.047.037.088.054.133.046.117.092.231.14.343l.034.083.032.071c.015.032.03.061.044.093.055.12.109.237.165.349l.027.056c.035.07.071.136.106.204.061.116.12.224.18.33l.086.151c.081.138.158.265.232.383l.048.076c.136.211.254.381.352.514l.07.096.04.054v1.858a1.48 1.48 0 0 1-.773 1.302l-5.008 2.732a5.06 5.06 0 0 0-2.639 4.445zm1.122 1.257v-1.256c0-1.443.787-2.77 2.054-3.46l5.008-2.732a2.608 2.608 0 0 0 1.359-2.289v-2.256l-.109-.13-.021-.025c-.001-.002-.036-.044-.093-.118a.069.069 0 0 0-.011-.013l-.104-.141-.002-.003a9.16 9.16 0 0 1-.305-.449l-.008-.012c-.055-.087-.113-.18-.173-.279l-.013-.022a11.815 11.815 0 0 1-.396-.72v-.001a10.605 10.605 0 0 1-.212-.45l-.029-.065a9.654 9.654 0 0 1-.093-.219l-.034-.084-.091-.232a9.835 9.835 0 0 1-.163-.477l-.031-.1-.011-.034a8.853 8.853 0 0 1-.146-.545l-.051-.222-.192-.123a1.12 1.12 0 0 1-.52-.941V10.11c0-.315.133-.608.376-.828l.185-.166V5.421l-.015-.012c-.019-.405.005-1.648.911-2.681.93-1.061 2.518-1.6 4.718-1.6 2.192 0 3.776.534 4.708 1.588 1.093 1.235.912 2.816.911 2.83l-.005 3.57.185.167c.243.219.376.512.376.827v2.245c0 .49-.321.919-.798 1.066l-.28.086-.09.278a11.779 11.779 0 0 1-1.591 3.207 7.321 7.321 0 0 1-.47.606l-.14.159v.213c-.141.059-.277.129-.414.196-.035.017-.07.033-.104.051a8.354 8.354 0 0 0-.864.522c-.067.047-.132.098-.197.148a7.26 7.26 0 0 0-.47.387c-.072.065-.146.129-.216.197-.08.078-.157.16-.234.241-.064.069-.128.138-.19.209a7.653 7.653 0 0 0-.218.259c-.058.073-.112.148-.167.223-.117.16-.227.323-.331.493-.049.079-.099.157-.145.238-.057.1-.108.203-.16.305a7.316 7.316 0 0 0-.255.561c-.042.103-.078.208-.115.312a6.618 6.618 0 0 0-.287 1.081 6.842 6.842 0 0 0-.091.652 6.916 6.916 0 0 0 .002 1.387c.009.091.027.179.039.269.02.148.038.296.067.441.02.098.048.194.071.291.032.134.063.269.103.401.027.089.062.176.093.264.047.136.094.273.149.406.031.075.067.146.101.219.064.143.13.285.204.423.032.06.069.118.103.177.083.145.167.289.261.428.034.051.072.099.107.15.099.141.2.28.309.413.04.05.084.096.126.144.087.101.17.204.263.301H8.976zm17.404 1.122a6.14 6.14 0 0 1-3.975-1.456c-.061-.052-.118-.107-.176-.16a6.278 6.278 0 0 1-.512-.522 6.268 6.268 0 0 1-.263-.327c-.054-.071-.109-.14-.16-.214a6.14 6.14 0 0 1-.345-.557c-.024-.045-.043-.092-.066-.138a6.066 6.066 0 0 1-.226-.491c-.029-.073-.054-.148-.081-.222a6.146 6.146 0 0 1-.295-1.167c-.011-.07-.024-.139-.032-.21a6.225 6.225 0 0 1-.044-.711c0-.19.012-.379.029-.564.006-.067.015-.132.024-.198.015-.118.032-.234.053-.35.015-.078.029-.156.047-.234.022-.101.049-.2.077-.299.023-.082.043-.165.069-.246a5.02 5.02 0 0 1 .294-.732c.03-.064.059-.126.091-.189a5.925 5.925 0 0 1 .259-.453 6.16 6.16 0 0 1 .179-.275c.032-.045.067-.088.1-.133.131-.177.272-.347.421-.508.034-.037.067-.076.102-.112.077-.079.158-.155.239-.23.047-.043.094-.087.142-.129a5.878 5.878 0 0 1 .395-.316c.098-.072.196-.144.299-.21l.022-.013c.384-.247.8-.453 1.243-.613l.111-.041.165-.059a6.184 6.184 0 0 1 7.99 5.904 6.184 6.184 0 0 1-6.176 6.176z"/>
        </symbol>
    </defs>
</svg>